<?xml version="1.0" encoding="utf-8"?>
<!-- Generator: Adobe Illustrator 17.0.2, SVG Export Plug-In . SVG Version: 6.00 Build 0)  -->
<!DOCTYPE svg PUBLIC "-//W3C//DTD SVG 1.1//EN" "http://www.w3.org/Graphics/SVG/1.1/DTD/svg11.dtd">
<svg version="1.1" id="Layer_1" xmlns="http://www.w3.org/2000/svg" xmlns:xlink="http://www.w3.org/1999/xlink" x="0px" y="0px"
	 width="288px" height="288px" viewBox="0 0 288 288" enable-background="new 0 0 288 288" xml:space="preserve">
<g>
	<circle fill="#5EB34B" cx="143.305" cy="142.677" r="110.867"/>
</g>
<g>
	<g>
		<path fill="#FFFFFF" d="M166.967,187.158l-7.141-21.423h-32.002l-7.401,21.423H99.884l34.37-97.469h20.833l34.369,97.469H166.967z
			 M154.556,149.415l-10.473-31.051l-10.72,31.051H154.556z"/>
		<path fill="#55A344" d="M154.733,90.189l34.017,96.469h-21.423l-7.141-21.423h-32.719l-7.401,21.423h-19.476l34.018-96.469
			H154.733 M132.661,149.915h22.591l-11.036-32.72h-0.259L132.661,149.915 M155.441,89.189h-0.708h-20.125h-0.708l-0.235,0.667
			l-34.018,96.469l-0.47,1.333h1.413h19.476h0.713l0.233-0.673l7.169-20.749h31.285l6.913,20.739l0.228,0.684h0.721h21.423h1.413
			l-0.47-1.333l-34.017-96.469L155.441,89.189L155.441,89.189z M134.064,148.915l10.013-29.003l9.782,29.003H134.064
			L134.064,148.915z"/>
	</g>
</g>
</svg>
