<?xml version="1.0" encoding="utf-8"?>
<!-- Generator: Adobe Illustrator 17.0.2, SVG Export Plug-In . SVG Version: 6.00 Build 0)  -->
<!DOCTYPE svg PUBLIC "-//W3C//DTD SVG 1.1//EN" "http://www.w3.org/Graphics/SVG/1.1/DTD/svg11.dtd">
<svg version="1.1" id="Layer_1" xmlns="http://www.w3.org/2000/svg" xmlns:xlink="http://www.w3.org/1999/xlink" x="0px" y="0px"
	 width="144px" height="72px" viewBox="0 0 144 72" enable-background="new 0 0 144 72" xml:space="preserve">
<path fill="#231F20" d="M129.524,34.679l-27.362-24.043c-0.877-0.771-2.126-0.958-3.19-0.476s-1.748,1.542-1.748,2.71v18.334H18.387
	c-1.643,0-2.975,1.332-2.975,2.975v5.453c0,1.643,1.332,2.975,2.975,2.975h78.837v18.351c0,1.168,0.684,2.229,1.748,2.71
	c0.393,0.179,0.811,0.265,1.226,0.265c0.71,0,1.411-0.253,1.965-0.74l27.362-24.044c0.643-0.564,1.011-1.379,1.011-2.234
	S130.167,35.244,129.524,34.679z"/>
</svg>
