<?xml version="1.0" encoding="utf-8"?>
<!-- Generator: Adobe Illustrator 17.0.2, SVG Export Plug-In . SVG Version: 6.00 Build 0)  -->
<!DOCTYPE svg PUBLIC "-//W3C//DTD SVG 1.1//EN" "http://www.w3.org/Graphics/SVG/1.1/DTD/svg11.dtd">
<svg version="1.1" id="Layer_1" xmlns="http://www.w3.org/2000/svg" xmlns:xlink="http://www.w3.org/1999/xlink" x="0px" y="0px"
	 width="288px" height="288px" viewBox="0 0 288 288" enable-background="new 0 0 288 288" xml:space="preserve">
<g>
	<circle fill="#8CBF48" cx="143.305" cy="142.689" r="110.867"/>
</g>
<g>
	<g>
		<path fill="#FFFFFF" d="M110.804,190.171v-97.08h38.933c23.401,0,34.776,7.936,34.776,24.261c0,11.381-6.173,19.378-17.014,22.175
			c13.191,2.859,19.61,10.612,19.61,23.657c0,16.898-13.243,26.987-35.426,26.987H110.804z M149.087,173.071
			c10.868,0,16.379-4.156,16.379-12.354c0-8.024-5.816-12.094-17.288-12.094h-15.6v24.448H149.087z M147.658,132.691
			c10.352,0,15.601-3.72,15.601-11.056c0-7.63-4.875-11.185-15.341-11.185h-15.34v22.24H147.658z"/>
		<path fill="#80AF41" d="M149.736,93.591c17.657,0,34.276,4.285,34.276,23.761c0,13.633-8.569,20.125-18.307,22.072v0.26
			c11.686,2.077,20.903,8.18,20.903,23.5c0,19.346-17.009,26.487-34.926,26.487h-40.38v-96.08H149.736 M132.078,133.191h15.58
			c11.036,0,16.101-4.154,16.101-11.556c0-7.53-4.545-11.685-15.841-11.685h-15.84V133.191 M132.078,173.571h17.009
			c11.686,0,16.879-4.675,16.879-12.854c0-8.439-6.103-12.594-17.788-12.594h-16.1V173.571 M149.736,92.591h-38.433h-1v1v96.08v1h1
			h40.38c9.962,0,18.512-2.126,24.725-6.15c7.432-4.812,11.201-11.992,11.201-21.338c0-12.51-6.111-20.468-18.175-23.7
			c9.954-3.251,15.578-11.15,15.578-22.132C185.013,100.69,173.474,92.591,149.736,92.591L149.736,92.591z M133.078,110.951h14.84
			c10.264,0,14.841,3.295,14.841,10.685c0,7.103-4.939,10.556-15.101,10.556h-14.58V110.951L133.078,110.951z M133.078,149.123h15.1
			c11.297,0,16.788,3.792,16.788,11.594c0,7.977-5.194,11.854-15.879,11.854h-16.009V149.123L133.078,149.123z"/>
	</g>
</g>
</svg>
