<?xml version="1.0" encoding="utf-8"?>
<!-- Generator: Adobe Illustrator 17.0.2, SVG Export Plug-In . SVG Version: 6.00 Build 0)  -->
<!DOCTYPE svg PUBLIC "-//W3C//DTD SVG 1.1//EN" "http://www.w3.org/Graphics/SVG/1.1/DTD/svg11.dtd">
<svg version="1.1" id="Layer_1" xmlns="http://www.w3.org/2000/svg" xmlns:xlink="http://www.w3.org/1999/xlink" x="0px" y="0px"
	 width="288px" height="288px" viewBox="0 0 288 288" enable-background="new 0 0 288 288" xml:space="preserve">
<g>
	<circle fill="#F4E839" cx="143.305" cy="142.702" r="110.867"/>
</g>
<g>
	<g>
		<path fill="#FFFFFF" d="M144.347,193.001c-27.63,0-44.125-18.874-44.125-50.487c0-30.981,16.908-50.228,44.125-50.228
			c21.578,0,34.479,10.021,39.438,30.635l0.111,0.463l-20.937,6.118l-0.138-0.486c-2.668-9.454-6.77-18.202-18.604-18.202
			c-13.875,0-21.832,11.554-21.832,31.699c0,20.337,8.259,32.479,22.092,32.479c10.271,0,16.184-5.945,19.771-19.879l0.121-0.468
			l20.834,4.629l-0.119,0.495C179.68,182.131,166.354,193.001,144.347,193.001z"/>
		<path fill="#DCD334" d="M144.347,92.786c24.28,0,34.797,12.983,38.951,30.252l-19.995,5.843
			c-3.115-11.036-7.79-18.566-19.086-18.566c-14.541,0-22.332,12.334-22.332,32.199c0,20.255,8.051,32.979,22.592,32.979
			c11.296,0,16.879-7.141,20.255-20.254l19.865,4.414c-4.675,19.346-16.1,32.849-40.25,32.849c-25.059,0-43.625-16.1-43.625-49.987
			C100.722,109.146,120.067,92.786,144.347,92.786 M144.347,91.786c-12.808,0-23.749,4.378-31.641,12.661
			c-8.494,8.914-12.984,22.078-12.984,38.067c0,31.927,16.682,50.987,44.625,50.987c11.671,0,21.124-3.171,28.096-9.425
			c6.168-5.533,10.584-13.671,13.126-24.188l0.239-0.99l-0.994-0.221l-19.865-4.414l-0.944-0.21l-0.241,0.937
			c-3.519,13.671-9.287,19.503-19.286,19.503c-6.803,0-12.159-2.843-15.918-8.451c-3.712-5.536-5.674-13.672-5.674-23.528
			c0-19.828,7.775-31.199,21.332-31.199c9.296,0,14.547,5.168,18.124,17.838l0.274,0.971l0.969-0.283l19.995-5.843l0.915-0.267
			l-0.223-0.926C179.249,101.932,166.19,91.786,144.347,91.786L144.347,91.786z"/>
	</g>
</g>
</svg>
