<?xml version="1.0" encoding="utf-8"?>
<!-- Generator: Adobe Illustrator 19.2.1, SVG Export Plug-In . SVG Version: 6.00 Build 0)  -->
<svg version="1.1" id="Layer_1" xmlns="http://www.w3.org/2000/svg" xmlns:xlink="http://www.w3.org/1999/xlink" x="0px" y="0px"
	 viewBox="0 0 127.5 69" style="enable-background:new 0 0 127.5 69;" xml:space="preserve">
<style type="text/css">
	.st0{display:none;}
	.st1{display:inline;}
	.st2{fill:none;stroke:#D1D1D1;stroke-linecap:round;stroke-miterlimit:10;}
	.st3{display:inline;fill:none;stroke:#D1D1D1;stroke-linecap:round;stroke-miterlimit:10;}
	.st4{fill:none;stroke:#E2E2E2;stroke-linecap:round;stroke-miterlimit:10;}
</style>
<rect x="-309.9" y="-545.6" class="st0" width="822.8" height="723.9"/>
<g class="st0">
	<g class="st1">
		<g>
			<line class="st2" x1="2" y1="36.3" x2="10.2" y2="51.9"/>
			<line class="st2" x1="38.3" y1="32.9" x2="10.2" y2="51.9"/>
			<line class="st2" x1="54.2" y1="63" x2="38.3" y2="32.9"/>
			<line class="st2" x1="68.7" y1="53.1" x2="54.2" y2="63"/>
			<line class="st2" x1="71.6" y1="67" x2="54.2" y2="63"/>
			<line class="st2" x1="85.9" y1="57" x2="71.6" y2="67"/>
			<line class="st2" x1="68.7" y1="53.1" x2="85.9" y2="57"/>
			<line class="st2" x1="62" y1="11.5" x2="85.9" y2="57"/>
			<line class="st2" x1="44.6" y1="7.4" x2="68.7" y2="53.1"/>
			<line class="st2" x1="62" y1="11.5" x2="44.6" y2="7.4"/>
			<line class="st2" x1="2" y1="36.3" x2="44.6" y2="7.4"/>
			<line class="st2" x1="27.7" y1="56" x2="43.9" y2="44.8"/>
			<line class="st2" x1="10.2" y1="51.9" x2="27.7" y2="56"/>
		</g>
		<g>
			<line class="st2" x1="83.7" y1="1.3" x2="107.8" y2="47"/>
			<line class="st2" x1="101.1" y1="5.3" x2="125.2" y2="51"/>
			<line class="st2" x1="107.8" y1="47" x2="125.2" y2="51"/>
			<line class="st2" x1="110.7" y1="60.9" x2="125.2" y2="51"/>
			<line class="st2" x1="93.3" y1="56.9" x2="110.7" y2="60.9"/>
			<line class="st2" x1="107.8" y1="47" x2="93.3" y2="56.9"/>
			<line class="st2" x1="77.4" y1="26.7" x2="93.3" y2="56.9"/>
			<line class="st2" x1="71.9" y1="30.3" x2="77.4" y2="26.7"/>
			<line class="st2" x1="83.7" y1="1.3" x2="101.1" y2="5.3"/>
			<line class="st2" x1="63.9" y1="15" x2="83.7" y2="1.3"/>
		</g>
		<line class="st2" x1="78.1" y1="42.1" x2="83.5" y2="38.3"/>
	</g>
	<line class="st3" x1="10.2" y1="51.9" x2="16.8" y2="26.3"/>
	<line class="st3" x1="38.3" y1="32.9" x2="44.6" y2="7.4"/>
	<line class="st3" x1="16.8" y1="26.3" x2="38.3" y2="32.9"/>
	<line class="st3" x1="38.3" y1="32.9" x2="60.4" y2="37.7"/>
	<line class="st3" x1="54.2" y1="63" x2="60.4" y2="37.7"/>
	<line class="st3" x1="10.2" y1="51.9" x2="35.1" y2="50.8"/>
	<line class="st3" x1="38.3" y1="32.9" x2="35.1" y2="50.8"/>
	<line class="st3" x1="54.2" y1="63" x2="85.9" y2="57"/>
	<line class="st3" x1="60.4" y1="37.7" x2="85.9" y2="57"/>
	<line class="st3" x1="44.6" y1="7.4" x2="70" y2="26.7"/>
	<line class="st3" x1="60.4" y1="37.7" x2="70" y2="26.7"/>
	<line class="st3" x1="77.4" y1="27.4" x2="83.7" y2="2"/>
	<line class="st3" x1="76.9" y1="27.2" x2="99" y2="32"/>
	<line class="st3" x1="93.4" y1="56.8" x2="99.7" y2="31.5"/>
	<line class="st3" x1="93.7" y1="56.9" x2="125.4" y2="50.9"/>
	<line class="st3" x1="68.7" y1="24.1" x2="77.7" y2="26.9"/>
	<line class="st3" x1="99.5" y1="31.8" x2="125" y2="51.2"/>
	<line class="st3" x1="83.7" y1="1.6" x2="109.2" y2="20.9"/>
	<line class="st3" x1="99.5" y1="31.8" x2="109.2" y2="20.9"/>
</g>
<g>
	<g>
		<g>
			<line class="st4" x1="2.2" y1="36.7" x2="10.4" y2="52.3"/>
			<line class="st4" x1="38.4" y1="33.2" x2="10.4" y2="52.3"/>
			<line class="st4" x1="54.3" y1="63.3" x2="38.4" y2="33.2"/>
			<line class="st4" x1="68.8" y1="53.5" x2="54.3" y2="63.3"/>
			<line class="st4" x1="71.8" y1="67.4" x2="54.3" y2="63.3"/>
			<line class="st4" x1="86" y1="57.3" x2="71.8" y2="67.4"/>
			<line class="st4" x1="68.8" y1="53.5" x2="86" y2="57.3"/>
			<line class="st4" x1="62.2" y1="11.8" x2="86" y2="57.3"/>
			<line class="st4" x1="44.7" y1="7.8" x2="68.8" y2="53.5"/>
			<line class="st4" x1="62.2" y1="11.8" x2="44.7" y2="7.8"/>
			<line class="st4" x1="2.2" y1="36.7" x2="44.7" y2="7.8"/>
			<line class="st4" x1="27.8" y1="56.3" x2="44.1" y2="45.1"/>
			<line class="st4" x1="10.4" y1="52.3" x2="27.8" y2="56.3"/>
		</g>
		<g>
			<line class="st4" x1="83.8" y1="1.6" x2="107.9" y2="47.3"/>
			<line class="st4" x1="101.3" y1="5.7" x2="125.3" y2="51.4"/>
			<line class="st4" x1="107.9" y1="47.3" x2="125.3" y2="51.4"/>
			<line class="st4" x1="110.8" y1="61.2" x2="125.3" y2="51.4"/>
			<line class="st4" x1="93.4" y1="57.2" x2="110.8" y2="61.2"/>
			<line class="st4" x1="107.9" y1="47.3" x2="93.4" y2="57.2"/>
			<line class="st4" x1="77.5" y1="27.1" x2="93.4" y2="57.2"/>
			<line class="st4" x1="72.1" y1="30.7" x2="77.5" y2="27.1"/>
			<line class="st4" x1="83.8" y1="1.6" x2="101.3" y2="5.7"/>
			<line class="st4" x1="64" y1="15.3" x2="83.8" y2="1.6"/>
		</g>
		<line class="st4" x1="78.2" y1="42.4" x2="83.6" y2="38.7"/>
	</g>
	<line class="st4" x1="16.3" y1="27.6" x2="24.2" y2="42.7"/>
	<line class="st4" x1="30.5" y1="18.1" x2="38.4" y2="33.2"/>
	<line class="st4" x1="69.6" y1="12.1" x2="77.6" y2="27.2"/>
	<line class="st4" x1="24.4" y1="42.7" x2="41.2" y2="46.8"/>
	<line class="st4" x1="77" y1="39.6" x2="80.9" y2="40.5"/>
	<line class="st4" x1="52.9" y1="23.3" x2="38.4" y2="33.2"/>
	<line class="st4" x1="60.4" y1="38.3" x2="46.2" y2="47.8"/>
	<line class="st4" x1="92" y1="17.2" x2="77.4" y2="27.1"/>
	<line class="st4" x1="99.4" y1="32.2" x2="85.2" y2="41.7"/>
	<line class="st4" x1="61.1" y1="38.1" x2="78.3" y2="42"/>
	<line class="st4" x1="52.9" y1="23.3" x2="70.2" y2="27.1"/>
	<line class="st4" x1="99.9" y1="32.1" x2="117.2" y2="36"/>
	<line class="st4" x1="91.8" y1="17.3" x2="109" y2="21.1"/>
	<line class="st4" x1="55.8" y1="63" x2="85.4" y2="57.4"/>
	<line class="st4" x1="94.3" y1="56.9" x2="124.8" y2="51.5"/>
	<line class="st4" x1="10.4" y1="52.3" x2="40.4" y2="47.2"/>
	<line class="st4" x1="80.2" y1="40.5" x2="77.9" y2="41.1"/>
	<line class="st4" x1="10.5" y1="52" x2="15.9" y2="27.8"/>
	<line class="st4" x1="38" y1="33.1" x2="16.4" y2="27.3"/>
	<line class="st4" x1="44.7" y1="7.8" x2="38.5" y2="32.7"/>
	<line class="st4" x1="69.7" y1="26.5" x2="45.7" y2="8.5"/>
	<line class="st4" x1="69.8" y1="27.5" x2="61" y2="37.7"/>
	<line class="st4" x1="61.3" y1="38.5" x2="85.2" y2="56.7"/>
	<line class="st4" x1="54.4" y1="62.7" x2="60.5" y2="38.8"/>
	<line class="st4" x1="38.8" y1="33.3" x2="60.1" y2="38"/>
	<line class="st4" x1="41.6" y1="46.5" x2="38.7" y2="33.8"/>
	<line class="st4" x1="83.4" y1="2.4" x2="77.5" y2="27.1"/>
	<line class="st4" x1="78" y1="27.1" x2="99.2" y2="31.7"/>
	<line class="st4" x1="76.8" y1="26.9" x2="69.4" y2="25.6"/>
	<line class="st4" x1="99.6" y1="32.6" x2="93.4" y2="57.2"/>
	<line class="st4" x1="100.6" y1="32.6" x2="124.6" y2="50.7"/>
	<line class="st4" x1="109" y1="21.5" x2="99.9" y2="32.1"/>
	<line class="st4" x1="84.1" y1="2.2" x2="108.6" y2="20.6"/>
	<line class="st4" x1="80.9" y1="40.2" x2="77.5" y2="27.1"/>
</g>
</svg>
