<?xml version="1.0" encoding="utf-8"?>
<!-- Generator: Adobe Illustrator 19.2.1, SVG Export Plug-In . SVG Version: 6.00 Build 0)  -->
<svg version="1.1" id="Layer_1" xmlns="http://www.w3.org/2000/svg" xmlns:xlink="http://www.w3.org/1999/xlink" x="0px" y="0px"
	 viewBox="0 0 215 24" style="enable-background:new 0 0 215 24;" xml:space="preserve">
<style type="text/css">
	.st0{fill:#010101;}
</style>
<g>
	<g>
		<path class="st0" d="M61.3,4.9c2.3,0,4,0.7,5.6,2.1c0.2,0.2,0.2,0.5,0,0.6l-1.8,1.9c-0.2,0.2-0.4,0.2-0.6,0
			c-0.9-0.8-2-1.2-3.1-1.2c-2.6,0-4.5,2.2-4.5,4.7c0,2.6,1.9,4.7,4.5,4.7c1.1,0,2.3-0.4,3.1-1.1c0.2-0.1,0.5-0.1,0.6,0l1.8,1.9
			c0.2,0.2,0.1,0.5,0,0.6c-1.6,1.5-3.5,2.2-5.6,2.2c-4.6,0-8.3-3.7-8.3-8.3S56.7,4.9,61.3,4.9z"/>
		<path class="st0" d="M76.7,4.9c4.6,0,8.3,3.7,8.3,8.3s-3.7,8.3-8.3,8.3s-8.3-3.7-8.3-8.3S72.1,4.9,76.7,4.9z M76.7,17.8
			c2.5,0,4.6-2.1,4.6-4.6c0-2.5-2.1-4.6-4.6-4.6c-2.5,0-4.6,2.1-4.6,4.6C72.1,15.8,74.2,17.8,76.7,17.8z"/>
		<path class="st0" d="M87.8,5.6c0-0.2,0.2-0.4,0.4-0.4h5.6c4.4,0,8.1,3.6,8.1,8c0,4.5-3.6,8.1-8.1,8.1h-5.6c-0.2,0-0.4-0.2-0.4-0.4
			V5.6z M93.6,17.9c2.6,0,4.5-2,4.5-4.7c0-2.6-1.9-4.7-4.5-4.7h-2.2v9.3L93.6,17.9L93.6,17.9z"/>
		<path class="st0" d="M104.7,5.6c0-0.2,0.2-0.4,0.4-0.4h9.5c0.3,0,0.4,0.2,0.4,0.4v2.5c0,0.2-0.2,0.4-0.4,0.4h-6.4v2.9h5.3
			c0.2,0,0.4,0.2,0.4,0.4v2.5c0,0.3-0.2,0.4-0.4,0.4h-5.3v3.1h6.4c0.3,0,0.4,0.2,0.4,0.4v2.5c0,0.2-0.2,0.4-0.4,0.4h-9.5
			c-0.3,0-0.4-0.2-0.4-0.4V5.6z"/>
		<path class="st0" d="M130.5,4.9c2.3,0,4,0.7,5.6,2.1c0.2,0.2,0.2,0.5,0,0.6l-1.8,1.9c-0.2,0.2-0.4,0.2-0.6,0
			c-0.9-0.8-2-1.2-3.1-1.2c-2.6,0-4.5,2.2-4.5,4.7c0,2.6,1.9,4.7,4.5,4.7c1.1,0,2.3-0.4,3.1-1.1c0.2-0.1,0.5-0.1,0.6,0l1.8,1.9
			c0.2,0.2,0.1,0.5,0,0.6c-1.6,1.5-3.5,2.2-5.6,2.2c-4.6,0-8.3-3.7-8.3-8.3S125.9,4.9,130.5,4.9z"/>
		<path class="st0" d="M138.8,5.6c0-0.2,0.2-0.4,0.4-0.4h2.7c0.2,0,0.4,0.2,0.4,0.4v12.3h5.5c0.3,0,0.4,0.2,0.4,0.4v2.5
			c0,0.2-0.2,0.4-0.4,0.4h-8.7c-0.3,0-0.4-0.2-0.4-0.4V5.6z"/>
		<path class="st0" d="M150.6,5.6c0-0.2,0.2-0.4,0.4-0.4h2.8c0.2,0,0.4,0.2,0.4,0.4v15.2c0,0.2-0.2,0.4-0.4,0.4H151
			c-0.2,0-0.4-0.2-0.4-0.4V5.6z"/>
		<path class="st0" d="M159.8,5.3c0-0.2,0.2-0.4,0.4-0.4h0.4c0.1,0,0.3,0.1,0.4,0.2l5.3,10h0l5.3-10c0.1-0.1,0.3-0.2,0.4-0.2h0.4
			c0.2,0,0.4,0.2,0.4,0.4l2.6,15.5c0,0.3-0.2,0.5-0.4,0.5h-2.7c-0.2,0-0.4-0.2-0.4-0.4l-1-7.1h0l-3.9,7.5c-0.1,0.1-0.3,0.3-0.4,0.3
			h-0.4c-0.1,0-0.3-0.1-0.4-0.3l-3.9-7.5h0l-1,7.1c0,0.2-0.2,0.4-0.4,0.4h-2.7c-0.3,0-0.5-0.2-0.4-0.5L159.8,5.3z"/>
		<path class="st0" d="M176.3,20.7l7.2-15.5c0.1-0.1,0.2-0.3,0.4-0.3h0.2c0.2,0,0.3,0.1,0.4,0.3l7.2,15.5c0.1,0.3,0,0.6-0.4,0.6
			h-2.6c-0.4,0-0.6-0.1-0.8-0.6l-0.8-1.8h-6.3l-0.8,1.8c-0.1,0.3-0.4,0.6-0.8,0.6h-2.5C176.4,21.3,176.2,21,176.3,20.7z M185.8,15.8
			l-1.8-3.8h0l-1.7,3.8H185.8z"/>
		<path class="st0" d="M194.9,8.6h-3.3c-0.3,0-0.4-0.2-0.4-0.4V5.6c0-0.2,0.2-0.4,0.4-0.4h10.2c0.3,0,0.4,0.2,0.4,0.4v2.5
			c0,0.2-0.2,0.4-0.4,0.4h-3.3v12.3c0,0.2-0.2,0.4-0.4,0.4h-2.8c-0.2,0-0.4-0.2-0.4-0.4L194.9,8.6L194.9,8.6z"/>
		<path class="st0" d="M204.6,5.6c0-0.2,0.2-0.4,0.4-0.4h9.5c0.3,0,0.4,0.2,0.4,0.4v2.5c0,0.2-0.2,0.4-0.4,0.4h-6.4v2.9h5.3
			c0.2,0,0.4,0.2,0.4,0.4v2.5c0,0.3-0.2,0.4-0.4,0.4h-5.3v3.1h6.4c0.3,0,0.4,0.2,0.4,0.4v2.5c0,0.2-0.2,0.4-0.4,0.4H205
			c-0.3,0-0.4-0.2-0.4-0.4L204.6,5.6L204.6,5.6z"/>
	</g>
	<g>
		<polygon class="st0" points="28.8,0 20.6,8.2 25.5,13.1 28.8,9.7 38.3,19.2 43.1,14.3 		"/>
		<polygon class="st0" points="19.1,9.7 14.3,4.9 1.9,17.2 0,19.1 4.9,24 6.8,22.1 13.1,15.8 14.3,14.6 19.1,19.4 23.7,24 
			28.6,19.1 24,14.6 		"/>
	</g>
</g>
</svg>
