<?xml version="1.0" encoding="utf-8"?>
<!-- Generator: Adobe Illustrator 17.0.2, SVG Export Plug-In . SVG Version: 6.00 Build 0)  -->
<!DOCTYPE svg PUBLIC "-//W3C//DTD SVG 1.1//EN" "http://www.w3.org/Graphics/SVG/1.1/DTD/svg11.dtd">
<svg version="1.1" id="Layer_1" xmlns="http://www.w3.org/2000/svg" xmlns:xlink="http://www.w3.org/1999/xlink" x="0px" y="0px"
	 width="288px" height="288px" viewBox="0 0 288 288" enable-background="new 0 0 288 288" xml:space="preserve">
<g>
	<circle fill="#F2AB46" cx="143.305" cy="142.714" r="110.867"/>
</g>
<g>
	<g>
		<path fill="#FFFFFF" d="M111.051,191.195V94.116h29.974c33.963,0,51.915,16.605,51.915,48.021
			c0,40.548-28.231,49.059-51.915,49.059H111.051z M142.452,173.057c20.383,0,28.324-8.597,28.324-30.66
			c0-20.763-8.549-29.622-28.584-29.622h-9.107v60.282H142.452z"/>
		<path fill="#DC9C3F" d="M141.024,94.616c29.343,0,51.415,12.464,51.415,47.521c0,36.095-22.462,48.559-51.415,48.559h-29.474
			V94.616H141.024 M132.585,173.557h9.867c20.904,0,28.824-9.348,28.824-31.16c0-20.515-8.05-30.122-29.084-30.122h-9.607V173.557
			 M141.024,93.616h-29.474h-1v1v96.079v1h1h29.474c34.29,0,52.415-17.137,52.415-49.559
			C193.439,110.394,175.315,93.616,141.024,93.616L141.024,93.616z M133.585,113.274h8.607c19.948,0,28.084,8.437,28.084,29.122
			c0,21.704-7.801,30.16-27.824,30.16h-8.867V113.274L133.585,113.274z"/>
	</g>
</g>
</svg>
