<?xml version="1.0" encoding="UTF-8" standalone="no"?>
<svg width="13px" height="13px" viewBox="0 0 13 13" version="1.1" xmlns="http://www.w3.org/2000/svg" xmlns:xlink="http://www.w3.org/1999/xlink">
    <!-- Generator: Sketch 3.8.3 (29802) - http://www.bohemiancoding.com/sketch -->
    <title>Extension</title>
    <desc>Created with Sketch.</desc>
    <defs>
        <polygon id="path-1" points="12.9857859 12.9857974 0 12.9857974 0 1.71806169e-05 12.9857859 1.71806169e-05"></polygon>
    </defs>
    <g id="Page-4" stroke="none" stroke-width="1" fill="none" fill-rule="evenodd">
        <g id="Settings-Icon">
            <mask id="mask-2" fill="white">
                <use xlink:href="#path-1"></use>
            </mask>
            <g id="Clip-2"></g>
            <path d="M6.49288722,8.92299956 C5.05630132,8.92299956 3.89174185,7.75844009 3.89174185,6.32185419 C3.89174185,4.88526828 5.05630132,3.72065154 6.49288722,3.72065154 C7.92947313,3.72065154 9.0940326,4.88526828 9.0940326,6.32185419 C9.0940326,7.75844009 7.92947313,8.92299956 6.49288722,8.92299956 L6.49288722,8.92299956 Z M12.9857859,4.77485419 L10.4775304,4.77485419 L12.2179269,3.03445771 L9.9502,0.766730837 L8.09641145,2.62051938 L8.09641145,1.71806169e-05 L4.889363,1.71806169e-05 L4.889363,2.62051938 L3.03557445,0.766730837 L0.767847577,3.03445771 L2.50824405,4.77485419 L-1.14537443e-05,4.77485419 L-1.14537443e-05,8.21097753 L2.5059533,8.21097753 L0.767847577,9.94908326 L3.03557445,12.2168101 L4.889363,10.3630216 L4.889363,12.9858145 L8.09641145,12.9858145 L8.09641145,10.3630216 L9.9502,12.2168101 L12.2179269,9.94908326 L10.4798211,8.21097753 L12.9857859,8.21097753 L12.9857859,4.77485419 Z" id="Fill-1" fill="#FFFFFF" mask="url(#mask-2)"></path>
        </g>
    </g>
</svg>