<?xml version="1.0" standalone="no"?>
<!DOCTYPE svg PUBLIC "-//W3C//DTD SVG 1.1//EN" "http://www.w3.org/Graphics/SVG/1.1/DTD/svg11.dtd" >
<svg xmlns="http://www.w3.org/2000/svg">
<metadata>Generated by IcoMoon</metadata>
<defs>
<font id="Bitly" horiz-adv-x="1024">
<font-face units-per-em="1024" ascent="960" descent="-64" />
<missing-glyph horiz-adv-x="1024" />
<glyph unicode="&#x20;" horiz-adv-x="512" d="" />
<glyph unicode="&#xe600;" glyph-name="b_icon" d="M507.13 960c-280.719 0-507.13-225.321-507.13-519.973 0-152.78 81.721-300.389 196.644-389.069 22.126-17.072 48.485-15.513 63.59-0.871 12.736 12.339 11.682 42.045-11.993 62.861-91.875 80.789-155.388 203.098-155.388 325.26 0 219.411 194.82 404.032 414.277 404.032 267.126 0 409.972-216.935 409.972-400.807 0-112.35-54.939-248.002-154.115-334.527 0.148 0.387 20.597 40.608 20.597 118.927 0 133.314-84.477 205.539-182.496 205.539-70.957 0-113.435-25.366-142.351-49.020 0 54.303 1.819 155.724 1.819 155.724 0 66.937-23.45 120.516-105.182 121.688-47.308 0.672-82.409-21.025-104.305-70.075-7.886-18.391-4.982-38.377 10.612-47.435 12.904-7.489 34.123-1.936 44.628 12.079 7.010 8.752 10.943 10.627 17.041 9.97 10.041-1.080 10.423-17.26 10.821-27.607 0.306-7.942 8.024-123.339 3.801-419.865 0-81.788 64.15-175.736 217.75-175.736 66.127 0 116.904 18.483 190.673 60.396 112.278 63.799 272.511 205.32 272.511 444.681 0 299.084-242.214 513.829-511.776 513.829v0zM555.303 55.706c-57.181-1.004-98.885 17.377-101.437 67.35-0.958 18.753-0.652 38.723 0.26 50.767 5.533 73.025 56.6 125.565 107.005 135.652 62.698 12.543 104.463-16.129 104.463-98.202 0-55.464-15.401-153.906-110.291-155.566v0z" />
<glyph unicode="&#xe601;" glyph-name="bitly_logo" horiz-adv-x="2048" d="M1481.031 592.774v0c0.134 18.044 0.368 34.906 0.368 51.264 0 35.983 24.024 65.113 60.25 65.113 36.215 0 57.507-29.839 57.507-65.821 0-48.266-2.967-90.652-3.498-143.309-0.633-63.519 21.129-119.482 74.121-119.329 50.878 0.148 106.756 21.514 108.12 130.318 0.659 52.652-1.139 84.055-1.139 132.32 0 35.983 25.133 65.821 61.358 65.821 36.205 0 61.363-29.839 61.363-65.821 0-48.266-3.953-96.093-3.953-170.697 0 0-2.222-150.691 3.085-184.045 16.609 5.517 40.582 21.713 65.975 60.976 15.332 23.71 44.642 28.789 62.707 18.289 24.867-14.448 23.984-42.692 14.683-63.325-24.004-53.268-55.214-85.868-134.131-112.849 0.245-90.346-6.062-223.634-173.513-247.721-143.406-20.628-208.268 62.326-208.487 132.921-0.342 111.463 111.327 143.925 272.512 184.412l-5.169 55.24c0 0-35.899-46.956-126.869-44.689-70.17 1.751-118.44 34.8-147.712 81.483-33.774-55.324-86.704-82.095-166.444-82.095-52.537 0-102.597 27.679-127.384 67.805v0c-36.556-43.626-87.537-67.234-156.052-67.234-59.704 0-103.811 20.565-130.226 52.663-34.081-37.993-83.173-52.999-151.699-52.999-66.384 0-136.164 40.725-139.469 116.921-75.501-79.697-191.915-117.67-340.56-117.67-149.928 0-212.548 101.962-212.548 181.38 4.132 288.197-3.417 380.215-3.718 387.938-0.388 10.052-0.761 25.778-10.582 26.828-5.96 0.637-9.806-1.182-16.665-9.69-10.276-13.623-31.026-19.018-43.641-11.738-15.255 8.803-18.095 28.229-10.378 46.105 21.41 47.669 55.74 68.761 102.002 68.104 79.938-1.136 102.87-53.212 102.87-118.269 0 0-1.777-93.719-1.777-146.493 28.274 22.981 69.816 47.639 139.208 47.639 144.489 0 236.215-178.436 141.961-349.148 120.799 55.57 146.026 151.29 150.721 246.33v0c-0.268 19.651-0.44 32.096-0.44 32.096 0 35.983 23.269 66.458 59.479 66.458 36.215 0 60.276-32.539 58.983-66.896-4.346-115.681-6.098-191.834-6.098-232.122 0-23.318 12.753-59.056 50.5-59.056 73.92 0 98.219 57.786 103.954 193.599v0c0.301 50.641 0.565 92.958 0.565 92.958-33.509 0-50.010 17.561-50.010 39.498 0 21.942 17.472 42.234 46.144 42.234 0 0 0.051 76.296 0.051 107.892 0 35.988 27.998 65.826 64.213 65.826 36.22 0 64.984-29.839 64.984-65.826 0-27.205-2.38-64.716-2.283-106.277 3.008 0.036 28.876 0.036 66.854 0.484 35.214 0.413 49.561-19.211 49.561-43.782 0-24.576-18.963-41.724-43.687-41.821-22.916-0.092-73.529 0.183-73.529 0.183-2.308-72.77-4.479-160.498-4.479-230.711 0-25.315 17.513-54.257 59.913-54.257 85.499 0 117.452 75.769 123.888 219.586-0.849 170.508-3.725 218.976-3.725 282.561 0 35.983 30.036 68.144 66.251 68.144 36.226 0 62.936-28.881 62.936-64.864 0-74.599-8.075-183.108-10.403-464.086-0.194-23.511 11.307-40.068 41.833-40.068 81.576 0 104.175 88.175 111.348 211.318zM414.636 528.601c0 79.77-40.843 107.637-102.165 95.446-49.29-9.802-94.116-55.775-99.525-126.747-0.894-11.707-1.19-27.317-0.255-45.54 2.497-48.566 38.161-70.6 94.085-69.627 92.804 1.62 107.86 92.568 107.86 146.468zM1808.905 172.35c-81.476-17.535-183.549-43.156-182.359-93.204 1.113-46.926 49.688-55.469 90.184-47.119 84.116 17.342 93.881 67.823 92.175 140.324zM703.174 921.878c36.563 0 66.123-29.37 66.123-65.699s-29.561-65.699-66.123-65.699c-36.563 0-66.123 29.37-66.123 65.699s29.561 65.699 66.123 65.699z" />
<glyph unicode="&#xe602;" glyph-name="campaign" horiz-adv-x="1252" d="M1203.2 960c-14.131 0-25.6-11.443-25.6-25.6v-32.256l-1126.4-342.784v16.64c0 14.157-11.469 25.6-25.6 25.6s-25.6-11.443-25.6-25.6v-256c0-14.157 11.469-25.6 25.6-25.6s25.6 11.443 25.6 25.6v16.64l204.8-62.31v-113.638c0-112.896 91.878-204.8 204.8-204.8 109.261 0 198.554 86.093 204.262 193.946l512.538-155.981v-32.256c0-14.131 11.469-25.6 25.6-25.6s25.6 11.469 25.6 25.6v972.8c0 14.157-11.469 25.6-25.6 25.6v0zM614.4 160.691c0-84.659-68.89-153.6-153.6-153.6s-153.6 68.941-153.6 153.6v98.048l307.2-93.491v-4.557zM51.2 390.144v115.712l1126.4 342.784v-801.28l-1126.4 342.784z" />
<glyph unicode="&#xe603;" glyph-name="checkbox" d="M51.2 806.697v0-717.394c0-56.305 45.769-102.103 102.103-102.103h717.394c56.305 0 102.103 45.769 102.103 102.103v717.394c0 56.305-45.769 102.103-102.103 102.103h-717.394c-56.305 0-102.103-45.769-102.103-102.103v0zM0 806.697c0 84.667 68.778 153.303 153.303 153.303h717.394c84.667 0 153.303-68.778 153.303-153.303v-717.394c0-84.667-68.778-153.303-153.303-153.303h-717.394c-84.667 0-153.303 68.778-153.303 153.303v717.394z" />
<glyph unicode="&#xe604;" glyph-name="checkmark" horiz-adv-x="1265" d="M1189.127 931.124l-871.272-903.529 66.099-1.137-290.409 322.674c-16.691 18.545-45.256 20.049-63.801 3.358s-20.049-45.256-3.358-63.801l290.409-322.674c17.532-19.48 47.907-20.003 66.099-1.137l871.272 903.529c17.319 17.96 16.799 46.56-1.161 63.879s-46.56 16.799-63.879-1.161v0z" />
<glyph unicode="&#xe605;" glyph-name="clicks" horiz-adv-x="1877" d="M452.522 47.701l0.168 455.111c0.014 37.703-30.539 68.278-68.242 68.292s-68.278-30.539-68.292-68.242l-0.168-455.111c-0.014-37.703 30.539-68.278 68.242-68.292s68.278 30.539 68.292 68.242v0zM729.007 47.701l0.302 819.2c0.014 37.703-30.539 68.278-68.242 68.292s-68.278-30.539-68.292-68.242l-0.302-819.2c-0.014-37.703 30.539-68.278 68.242-68.292s68.278 30.539 68.292 68.242v0zM176.372 47.701l0.067 182.044c0.014 37.703-30.539 68.278-68.242 68.292s-68.278-30.539-68.292-68.242l-0.067-182.044c-0.014-37.703 30.539-68.278 68.242-68.292s68.278 30.539 68.292 68.242v0zM1557.96 47.701l0.067 182.044c0.014 37.703-30.539 68.278-68.242 68.292s-68.278-30.539-68.292-68.242l-0.067-182.044c-0.014-37.703 30.539-68.278 68.242-68.292s68.278 30.539 68.292 68.242v0zM1834.711 47.701l0.134 364.089c0.014 37.703-30.539 68.278-68.242 68.292s-68.278-30.539-68.292-68.242l-0.134-364.089c-0.014-37.703 30.539-68.278 68.242-68.292s68.278 30.539 68.292 68.242v0zM1005.325 47.701l0.201 546.133c0.014 37.703-30.539 68.278-68.242 68.292s-68.278-30.539-68.292-68.242l-0.201-546.133c-0.014-37.703 30.539-68.278 68.242-68.292s68.278 30.539 68.292 68.242v0zM1281.642 47.701l0.134 364.089c0.014 37.703-30.539 68.278-68.242 68.292s-68.278-30.539-68.292-68.242l-0.134-364.089c-0.014-37.703 30.539-68.278 68.242-68.292s68.278 30.539 68.292 68.242v0z" />
<glyph unicode="&#xe606;" glyph-name="close" d="M510.544 515.988l413.405 413.104c18.752 18.738 49.144 18.727 67.882-0.025s18.727-49.144-0.025-67.882l-413.617-413.316 412.027-414.908c18.68-18.81 18.574-49.202-0.236-67.882s-49.202-18.574-67.882 0.236l-411.816 414.695-413.413-413.112c-18.752-18.738-49.144-18.727-67.882 0.025s-18.727 49.144 0.025 67.882l413.625 413.324-412.019 414.9c-18.68 18.81-18.574 49.202 0.236 67.882s49.202 18.574 67.882-0.236l411.808-414.688z" />
<glyph unicode="&#xe607;" glyph-name="edit" horiz-adv-x="1055" d="M1003.52 821.76l-87.040 87.040c-40.96 40.96-112.64 40.96-153.6 0l-650.24-634.88c0 0 0 0 0 0s0 0 0 0l-10.24-10.24c-5.12-5.12-5.12-5.12-5.12-10.24l-66.56-266.24c-5.12-20.48 10.24-35.84 30.72-30.72l271.36 61.44c5.12 0 10.24 5.12 10.24 5.12l10.24 10.24c0 0 0 0 0 0s0 0 0 0l645.12 634.88c51.2 40.96 51.2 112.64 5.12 153.6zM92.16 12.8l46.080 199.68 158.72-153.6-204.8-46.080zM337.92 89.6l-174.080 168.96 522.24 512 174.080-168.96-522.24-512zM896 637.44l-174.080 168.96 25.6 20.48 174.080-168.96-25.6-20.48zM967.68 704l-10.24-10.24-174.080 168.96 10.24 10.24c20.48 20.48 61.44 20.48 81.92 0l87.040-87.040c30.72-20.48 30.72-56.32 5.12-81.92z" />
<glyph unicode="&#xe608;" glyph-name="email_shared" d="M512 951.742c-277.471 0-503.742-226.271-503.742-503.742s226.271-503.742 503.742-503.742 503.742 226.271 503.742 503.742-226.271 503.742-503.742 503.742zM512-39.226c-269.213 0-487.226 218.013-487.226 487.226s218.013 487.226 487.226 487.226 487.226-218.013 487.226-487.226-218.013-487.226-487.226-487.226zM720.103 628.026h-427.768c-24.774 0-44.594-21.471-44.594-47.897v-289.032c0-26.426 19.819-47.897 44.594-47.897h427.768c24.774 0 44.594 21.471 44.594 47.897v289.032c-1.652 26.426-21.471 47.897-44.594 47.897zM720.103 611.51c4.955 0 8.258-1.652 13.213-3.303l-226.271-199.845-226.271 199.845c3.303 1.652 8.258 3.303 13.213 3.303h426.116zM746.529 291.097c0-16.516-13.213-31.381-28.077-31.381h-427.768c-14.865 0-28.077 13.213-28.077 31.381v289.032c0 4.955 1.652 9.91 3.303 14.865l231.226-204.8 4.955-4.955 4.955 4.955 231.226 204.8c1.652-4.955 3.303-9.91 3.303-14.865v-289.032z" />
<glyph unicode="&#xe609;" glyph-name="facebook_shared" d="M512-55.742c278.209 0 503.742 225.533 503.742 503.742s-225.533 503.742-503.742 503.742c-278.209 0-503.742-225.533-503.742-503.742s225.533-503.742 503.742-503.742v0zM512-39.226c-269.087 0-487.226 218.138-487.226 487.226s218.138 487.226 487.226 487.226c269.087 0 487.226-218.138 487.226-487.226s-218.138-487.226-487.226-487.226v0zM618.548 456.258h-76.687v-256l8.258 8.258h-102.438l8.258-8.258v256h-59.496l8.258-8.258v86.334l-8.258-8.258h59.496v57.056c0 72.158 28.849 104.352 101.987 104.352h69.218l-8.258 8.258v-86.334l8.258 8.258h-43.017c-33.263 0-41.966-10.97-41.966-42.041l-0.3-41.23-0.060-8.318h85.756l-8.213 9.115-9.009-86.334 8.213 7.401zM618.548 439.742h7.441l10.732 102.85h-86.603l8.258-8.318 0.3 41.29c0 22.739 2.258 25.585 25.45 25.585h51.275v102.85h-77.476c-82.688 0-118.503-39.968-118.503-120.868v-48.798l8.258 8.258h-59.496v-102.85h59.496l-8.258 8.258v-256h118.954v256l-8.258-8.258h68.429z" />
<glyph unicode="&#xe60a;" glyph-name="no_bitlinks" horiz-adv-x="1055" d="M539.54 227.741l-174.898-169.256c-75.014-72.594-171.458-77.828-229.973-21.162l-43.73 42.32c-55.109 53.349-55.109 145.949 0 199.28l240.485 232.727c87.667 84.839 181.070 69.774 249.63-18.689 7.873-10.159 22.492-12.012 32.651-4.139s12.012 22.492 4.139 32.651c-84.476 109.002-209.696 129.198-318.789 23.625l-240.485-232.727c-74.010-71.623-74.010-194.528-0.003-266.172l43.727-42.317c77.406-74.96 202.405-68.176 294.716 21.157l174.898 169.256c9.236 8.938 9.478 23.672 0.539 32.908s-23.672 9.478-32.908 0.539v0zM515.49 690.778l196.76 190.413c50.973 49.345 147.18 37.773 208.122-21.162l43.719-42.309c55.15-53.335 55.15-124.769 0.003-178.12l-262.35-253.887c-51.795-50.124-144.867-38.115-183.273 17.636-7.292 10.585-21.783 13.254-32.368 5.963s-13.254-21.783-5.963-32.368c54.375-78.932 181.024-95.273 253.972-24.678l262.347 253.884c74.056 71.642 74.056 173.4-0.006 245.023l-43.719 42.309c-77.489 74.938-201.847 89.897-272.856 21.154l-196.758-190.41c-9.236-8.938-9.478-23.672-0.539-32.908s23.672-9.478 32.908-0.539v0z" />
<glyph unicode="&#xe60b;" glyph-name="no_clicks" horiz-adv-x="693" d="M302.365 614.283c0 20.68 20.279 40.133 42.54 40.133 23.444 0 45.436-19.885 45.436-40.133v-243.17c0-9.643 6.122-18.223 15.241-21.36l180.371-62.041c26.326-8.245 39.069-40.586 30.771-75.632l-42.903-225.826 22.192 18.374h-332.879l18.563-9.718-170.068 245.294c-6.477 9.655-10.125 24.54-8.581 35.482 1.168 8.281 3.674 10.797 11.023 10.797 38.435 0 74.634-30.2 146.911-138.646 12.395-18.598 41.384-9.823 41.384 12.527v453.918zM257.189 614.283v-453.918l41.384 12.527c-79.928 119.924-126.486 158.768-184.503 158.768-31.365 0-51.62-20.334-55.757-49.663-3.134-22.215 3.249-48.257 15.996-67.25l170.261-245.576c4.22-6.087 11.156-9.718 18.563-9.718h332.879c10.85 0 20.168 7.715 22.192 18.374l42.692 224.835c13.026 54.918-9.416 111.878-60.853 127.968l-179.767 61.843 15.241-21.36v243.17c0 46.27-43.176 85.31-90.612 85.31-46.801 0-87.716-39.25-87.716-85.31v0zM662.588 681.412h-133.152c-12.475 0-22.588-10.113-22.588-22.588s10.113-22.588 22.588-22.588h133.152c12.475 0 22.588 10.113 22.588 22.588s-10.113 22.588-22.588 22.588v0zM559.983 856.711l-83.936-81.754c-8.937-8.704-9.125-23.005-0.421-31.942s23.005-9.125 31.942-0.421l83.936 81.754c8.937 8.704 9.125 23.005 0.421 31.942s-23.005 9.125-31.942 0.421v0zM308.706 922.299v-129.691c0-12.475 10.113-22.588 22.588-22.588s22.588 10.113 22.588 22.588v129.691c0 12.475-10.113 22.588-22.588 22.588s-22.588-10.113-22.588-22.588v0zM98.301 824.349l83.936-81.754c8.937-8.704 23.237-8.516 31.942 0.421s8.516 23.237-0.421 31.942l-83.936 81.754c-8.937 8.704-23.237 8.516-31.942-0.421s-8.516-23.237 0.421-31.942v0zM30.118 636.235h133.152c12.475 0 22.588 10.113 22.588 22.588s-10.113 22.588-22.588 22.588h-133.152c-12.475 0-22.588-10.113-22.588-22.588s10.113-22.588 22.588-22.588v0z" />
<glyph unicode="&#xe60c;" glyph-name="search" d="M605.892 327.819l330.223-326.15c16.765-16.559 43.78-16.391 60.339 0.374s16.391 43.78-0.374 60.339l-330.223 326.15c-16.765 16.559-43.78 16.391-60.339-0.374s-16.391-43.78 0.374-60.339v0zM687.685 583.387c0-152.242-125.167-275.865-279.842-275.865s-279.842 123.623-279.842 275.865c0 152.242 125.167 275.865 279.842 275.865s279.842-123.623 279.842-275.865v0zM773.018 583.387c0 199.608-163.608 361.198-365.176 361.198s-365.176-161.59-365.176-361.198c0-199.608 163.608-361.198 365.176-361.198s365.176 161.59 365.176 361.198v0z" />
<glyph unicode="&#xe60d;" glyph-name="selector" horiz-adv-x="569" d="M76.974-27.253l456.397 455.111c11.146 11.115 11.146 29.169 0 40.283l-456.397 455.111c-11.124 11.093-29.134 11.067-40.226-0.057s-11.067-29.134 0.057-40.226l456.397-455.111v40.283l-456.397-455.111c-11.124-11.093-11.149-29.103-0.057-40.226s29.103-11.149 40.226-0.057v0z" />
<glyph unicode="&#xe60e;" glyph-name="server_error" d="M993.882 4.629h-465.266l20.102-32.891 232.633 453.918h-40.204l232.633-453.918 20.102 32.891zM993.882-40.548c16.89 0 27.805 17.86 20.102 32.891l-232.633 453.918c-8.395 16.381-31.809 16.381-40.204 0l-232.633-453.918c-7.703-15.031 3.212-32.891 20.102-32.891h465.266zM730.353 241.422v-97.268c0-12.475 10.113-22.588 22.588-22.588s22.588 10.113 22.588 22.588v97.268c0 12.475-10.113 22.588-22.588 22.588s-22.588-10.113-22.588-22.588v0zM730.353 76.14v-30.849c0-3.957 10.113-7.164 22.588-7.164s22.588 3.207 22.588 7.164v30.849c0 3.957-10.113 7.164-22.588 7.164s-22.588-3.207-22.588-7.164v0zM805.128 760.185c0-71.491-167.354-139.525-376.211-139.525s-376.211 68.034-376.211 139.525c0 71.491 167.354 139.525 376.211 139.525s376.211-68.034 376.211-139.525v0zM850.304 760.185c0 107.557-189.763 184.702-421.387 184.702s-421.387-77.144-421.387-184.702c0-107.557 189.763-184.702 421.387-184.702s421.387 77.144 421.387 184.702v0zM541.051 465.203c-36.005-4.397-73.694-6.658-112.133-6.658-208.857 0-376.211 68.034-376.211 139.525 0 12.475-10.113 22.588-22.588 22.588s-22.588-10.113-22.588-22.588c0-107.557 189.763-184.702 421.387-184.702 40.257 0 79.774 2.371 117.609 6.992 12.383 1.512 21.196 12.777 19.684 25.16s-12.777 21.196-25.16 19.684v0zM428.917 296.433c-208.857 0-376.211 68.034-376.211 139.525 0 12.475-10.113 22.588-22.588 22.588s-22.588-10.113-22.588-22.588c0-107.557 189.763-184.702 421.387-184.702 12.475 0 22.588 10.113 22.588 22.588s-10.113 22.588-22.588 22.588v0zM7.529 760.185v-486.34c0-107.557 189.763-184.702 421.387-184.702 12.475 0 22.588 10.113 22.588 22.588s-10.113 22.588-22.588 22.588c-208.857 0-376.211 68.034-376.211 139.525v486.34c0 12.475-10.113 22.588-22.588 22.588s-22.588-10.113-22.588-22.588v0zM805.647 760.185v-226.959c0-12.475 10.113-22.588 22.588-22.588s22.588 10.113 22.588 22.588v226.959c0 12.475-10.113 22.588-22.588 22.588s-22.588-10.113-22.588-22.588v0z" />
<glyph unicode="&#xe610;" glyph-name="tag" horiz-adv-x="780" d="M50.85 578.15l349.091 307.421h-30.762l349.091-307.421-7.892 17.466v-623.488l23.273 23.273h-698.182l23.273-23.273v623.488l-7.892-17.466zM20.088 613.081l-7.892-6.95v-657.277h744.727v657.277l-372.364 327.916-364.472-320.966zM384.56 435.946c64.266 0 116.364 52.098 116.364 116.364s-52.098 116.364-116.364 116.364c-64.266 0-116.364-52.098-116.364-116.364s52.098-116.364 116.364-116.364v0zM384.56 482.491c-38.56 0-69.818 31.259-69.818 69.818s31.259 69.818 69.818 69.818c38.56 0 69.818-31.259 69.818-69.818s-31.259-69.818-69.818-69.818v0zM198.378 272.346h395.636v46.545h-418.909v-46.545h23.273zM198.378 144.628h395.636v46.545h-418.909v-46.545h23.273z" />
<glyph unicode="&#xe611;" glyph-name="tagline" horiz-adv-x="8847" d="M130.999 687.496h-116.345c-8.359 0-14.44 6.849-14.44 14.448v62.356c0 7.6 6.081 14.448 14.44 14.448h332.301c8.367 0 14.448-6.849 14.448-14.448v-62.356c0-7.6-6.081-14.448-14.448-14.448h-116.337v-426.59c0-7.608-6.849-14.448-14.456-14.448h-70.715c-7.6 0-14.448 6.84-14.448 14.448v426.59zM447.676 764.3c0 7.6 6.84 14.448 14.448 14.448h70.723c8.359 0 14.44-6.849 14.44-14.448v-201.508h247.898v201.508c0 7.6 6.089 14.448 14.448 14.448h69.956c7.608 0 14.448-6.849 14.448-14.448v-503.395c0-7.608-6.84-14.448-14.448-14.448h-69.956c-8.359 0-14.448 6.84-14.448 14.448v209.875h-247.898v-209.875c0-7.608-6.081-14.448-14.44-14.448h-70.723c-7.608 0-14.448 6.84-14.448 14.448v503.395zM999.052 764.3c4.261 7.6 10.342 14.448 18.709 14.448h309.486c8.359 0 14.448-6.849 14.448-14.448v-62.356c0-7.6-6.089-14.448-14.448-14.448h-225.082v-124.704h187.819c7.608 0 14.448-6.849 14.448-14.448v-63.115c0-8.367-6.84-14.448-14.448-14.448h-187.819v-133.071h225.082c8.359 0 14.448-6.84 14.448-14.448v-62.356c0-7.608-6.089-14.448-14.448-14.448h-309.486c-8.367 0-14.448 6.84-18.709 14.448v503.395zM1648.864 764.3c0 7.6 6.081 14.448 14.448 14.448h178.693c93.53 0 170.334-76.045 170.334-168.049 0-94.297-76.804-171.101-169.567-171.101h-95.056v-178.693c0-7.608-6.849-14.448-14.448-14.448h-69.956c-8.367 0-14.448 6.84-14.448 14.448v503.395zM1835.923 532.369c42.577 0 78.323 34.219 78.323 79.090 0 41.818-35.745 73.751-78.323 73.751h-88.208v-152.841h88.208zM2349.179 786.348c152.082 0 273.749-122.426 273.749-274.508s-121.667-272.982-273.749-272.982c-152.082 0-272.99 120.9-272.99 272.982s120.908 274.508 272.99 274.508v0zM2349.179 337.71c95.815 0 174.897 78.323 174.897 174.13 0 95.815-79.082 175.656-174.897 175.656-95.807 0-174.13-79.841-174.13-175.656 0-95.807 78.323-174.13 174.13-174.13v0zM2678.264 760.497c-3.045 10.644 3.037 18.252 13.689 18.252h69.956c6.081 0 12.163-5.322 13.689-10.653l79.082-303.397h3.037l120.908 313.282c1.518 4.563 5.322 8.367 12.922 8.367h13.689c7.608 0 11.412-3.804 12.93-8.367l121.667-313.282h3.037l77.563 303.397c1.518 5.33 7.608 10.653 13.689 10.653h69.956c10.644 0 16.734-7.608 13.689-18.252l-143.723-510.994c-1.518-6.081-7.6-10.644-13.681-10.644h-12.163c-6.849 0-11.412 3.796-12.93 8.359l-136.115 344.472h-3.804l-134.589-344.472c-2.286-4.563-5.322-8.359-12.93-8.359h-12.163c-6.089 0-12.171 4.563-13.689 10.644l-143.715 510.994zM3408.316 764.3c0 7.6 6.081 14.448 14.448 14.448h309.486c8.367 0 14.448-6.849 14.448-14.448v-62.356c0-7.6-6.081-14.448-14.448-14.448h-225.082v-124.704h187.827c7.6 0 14.448-6.849 14.448-14.448v-63.115c0-8.367-6.849-14.448-14.448-14.448h-187.827v-133.071h225.082c8.367 0 14.448-6.84 14.448-14.448v-62.356c0-7.608-6.081-14.448-14.448-14.448h-309.486c-8.367 0-14.448 6.84-14.448 14.448v503.395zM3859.118 764.3c0 7.6 6.081 14.448 14.44 14.448h217.483c91.244 0 165.771-73 165.771-163.485 0-69.964-46.389-126.998-112.541-153.608l104.174-193.141c5.322-9.885 0-22.056-12.93-22.056h-79.841c-6.84 0-10.644 3.804-12.171 6.84l-101.13 201.516h-84.404v-193.908c0-7.608-6.849-14.448-14.448-14.448h-69.964c-8.359 0-14.44 6.84-14.44 14.448v503.395zM4082.674 536.173c40.3 0 75.278 34.978 75.278 77.563 0 40.3-34.978 73.759-75.278 73.759h-123.945v-151.323h123.945zM4684.243 571.176c69.956 0 120.908-63.874 120.908-138.393 0-98.093-76.037-180.978-165.771-180.978-70.715 0-120.9 66.16-120.9 139.16 0 97.326 74.519 180.211 165.763 180.211v0zM4720.739 424.416c0 35.745-19.003 64.642-47.9 64.642-37.263 0-70.715-40.308-70.715-88.975 0-36.496 19.003-66.152 48.659-66.152 36.504 0 69.956 41.059 69.956 90.485v0zM4914.631 470.781h-51.752c-7.608 0-12.171 6.84-11.403 14.448l7.6 50.944c0.759 8.367 6.84 14.448 14.448 14.448h51.761l42.382 250.485c16.726 109.496 70.715 153.6 151.315 153.6 36.504 0 72.241-17.485 82.126-29.656 3.804-3.804 3.804-12.163 0.759-17.485l-26.611-47.149c-6.081-9.885-12.922-10.644-20.53-6.081-6.84 3.804-19.77 10.644-38.023 10.644-28.897 0-47.14-22.056-53.23-63.874l-41.622-250.485h108.566c7.6 0 12.171-6.081 10.644-14.448l-6.84-50.944c-0.767-7.608-7.608-14.448-15.216-14.448h-108.558l-84.698-481.159c-1.526-7.608-8.367-14.456-15.216-14.456h-70.715c-6.84 0-12.163 6.849-10.644 14.456l85.457 481.159zM5510.845 687.496h-116.345c-8.359 0-14.448 6.849-14.448 14.448v62.356c0 7.6 6.089 14.448 14.448 14.448h332.301c8.367 0 14.448-6.849 14.448-14.448v-62.356c0-7.6-6.081-14.448-14.448-14.448h-116.345v-426.59c0-7.608-6.84-14.448-14.448-14.448h-70.715c-7.608 0-14.448 6.84-14.448 14.448v426.59zM5824.307 764.3c0 7.6 6.849 14.448 14.448 14.448h70.723c8.359 0 14.448-6.849 14.448-14.448v-201.508h247.889v201.508c0 7.6 6.081 14.448 14.448 14.448h69.956c7.608 0 14.448-6.849 14.448-14.448v-503.395c0-7.608-6.84-14.448-14.448-14.448h-69.956c-8.367 0-14.448 6.84-14.448 14.448v209.875h-247.889v-209.875c0-7.608-6.089-14.448-14.448-14.448h-70.723c-7.6 0-14.448 6.84-14.448 14.448v503.395zM6375.47 764.3c0 7.6 6.081 14.448 14.448 14.448h309.486c8.359 0 14.448-6.849 14.448-14.448v-62.356c0-7.6-6.089-14.448-14.448-14.448h-225.082v-124.704h187.819c7.608 0 14.448-6.849 14.448-14.448v-63.115c0-8.367-6.84-14.448-14.448-14.448h-187.819v-133.071h225.082c8.359 0 14.448-6.84 14.448-14.448v-62.356c0-7.608-6.089-14.448-14.448-14.448h-309.486c-8.367 0-14.448 6.84-14.448 14.448v503.395zM7027.233 764.3c0 7.6 6.081 14.448 14.448 14.448h69.956c7.608 0 14.448-6.849 14.448-14.448v-426.59h193.9c8.367 0 14.448-6.84 14.448-14.448v-62.356c0-7.608-6.081-14.448-14.448-14.448h-278.304c-8.367 0-14.448 6.84-14.448 14.448v503.395zM7439.195 764.3c0 7.6 6.849 14.448 14.448 14.448h70.715c7.608 0 14.448-6.849 14.448-14.448v-503.395c0-7.608-6.84-14.448-14.448-14.448h-70.715c-7.6 0-14.448 6.84-14.448 14.448v503.395zM7666.849 772.659c0 7.608 6.849 13.689 14.448 13.689h19.011l316.335-336.097h0.759v314.049c0 7.6 6.081 14.448 14.44 14.448h69.964c7.6 0 14.448-6.849 14.448-14.448v-511.762c0-7.6-6.849-13.681-14.448-13.681h-18.252l-317.853 349.027h-0.759v-326.979c0-7.608-6.081-14.448-14.448-14.448h-69.196c-7.6 0-14.448 6.84-14.448 14.448v511.753zM8244.289 760.497c0 9.885 7.608 18.252 18.252 18.252h66.911c9.893 0 18.252-8.367 18.252-18.252v-205.312l191.631 215.956c3.037 3.804 7.6 7.608 14.44 7.608h76.045c14.448 0 22.048-15.967 12.163-27.378l-198.463-223.556 212.912-254.738c7.608-9.885 1.526-26.619-13.681-26.619h-82.886c-7.608 0-12.171 3.045-13.689 5.33l-198.471 244.845v-231.923c0-9.885-8.359-18.252-18.252-18.252h-66.911c-10.644 0-18.252 8.367-18.252 18.252v495.787zM8777.315 364.321c34.219 0 63.115-28.896 63.115-63.115s-28.896-62.348-63.115-62.348c-34.219 0-62.348 28.129-62.348 62.348s28.129 63.115 62.348 63.115z" />
<glyph unicode="&#xe612;" glyph-name="twitter_shared" d="M512 951.742c-277.471 0-503.742-226.271-503.742-503.742s226.271-503.742 503.742-503.742 503.742 226.271 503.742 503.742-226.271 503.742-503.742 503.742zM512-39.226c-269.213 0-487.226 218.013-487.226 487.226s218.013 487.226 487.226 487.226 487.226-218.013 487.226-487.226-218.013-487.226-487.226-487.226zM779.561 598.297h-1.652l-1.652-1.652c-8.258-3.303-14.865-6.606-23.123-9.91 9.91 11.561 16.516 24.774 19.819 37.987l4.955 18.168-16.516-8.258c-21.471-11.561-39.639-18.168-59.458-21.471-16.516 19.819-46.245 33.032-74.323 33.032-66.065 0-113.961-49.548-112.31-112.31 0-1.652 0-4.955 0-8.258 0-1.652 0-3.303 0-3.303 0-1.652 0-1.652 0-3.303-77.626 6.606-148.645 44.594-198.194 105.703l-6.606 8.258-6.606-9.91c-9.91-14.865-16.516-36.335-14.865-56.155 0-28.077 8.258-52.852 26.426-72.671-6.606 1.652-11.561 3.303-19.819 4.955l-9.91 3.303v-11.561c0-39.639 24.774-77.626 61.11-95.794h-19.819l3.303-9.91c8.258-36.335 42.942-66.065 80.929-74.323-29.729-18.168-66.065-28.077-105.703-28.077h-51.2l23.123-14.865c46.245-31.381 104.052-49.548 161.858-49.548 176.723 0 303.897 145.342 307.2 307.2 0 3.303 0 4.955-1.652 6.606 19.819 13.213 36.335 31.381 49.548 54.503l6.606 13.213h-21.471v-1.652zM723.406 540.49l-6.606-3.303 3.303-6.606c1.652-1.652 3.303-4.955 3.303-6.606 0 0 0 0 0 0-3.303-153.6-123.871-290.684-290.684-290.684-42.942 0-87.535 11.561-125.523 31.381 49.548 1.652 94.142 16.516 127.174 44.594l16.516 14.865h-23.123c-36.335 0-71.019 23.123-82.581 54.503h6.606c4.955 0 6.606 0 8.258 0 6.606 0 11.561 1.652 18.168 4.955l21.471 11.561-23.123 4.955c-39.639 8.258-72.671 41.29-77.626 80.929 16.516-4.955 28.077-6.606 37.987-6.606h24.774l-19.819 14.865c-24.774 18.168-39.639 44.594-39.639 79.277 0 13.213 3.303 26.426 8.258 37.987 54.503-61.11 130.477-99.097 211.406-104.052h9.91l-1.652 9.91c0 3.303 0 6.606 0 9.91 0 1.652 0 1.652 0 3.303 0 3.303 0 6.606 0 8.258-1.652 52.852 39.639 95.794 95.794 95.794 24.774 0 51.2-13.213 64.413-29.729l3.303-3.303 4.955 1.652c16.516 3.303 31.381 8.258 49.548 14.865-6.606-11.561-18.168-23.123-31.381-33.032l-31.381-23.123 37.987 9.91c14.865 3.303 24.774 6.606 34.684 9.91-9.91-16.516-21.471-28.077-34.684-36.335z" />
<glyph unicode="&#xe613;" glyph-name="geolocation" d="M512 951.742c-277.471 0-503.742-226.271-503.742-503.742s226.271-503.742 503.742-503.742 503.742 226.271 503.742 503.742-226.271 503.742-503.742 503.742zM512-39.226c-269.213 0-487.226 218.013-487.226 487.226s218.013 487.226 487.226 487.226 487.226-218.013 487.226-487.226-218.013-487.226-487.226-487.226zM512 687.484c-95.794 0-173.419-77.626-173.419-173.419 0-33.032 18.168-80.929 52.852-142.039 9.91-16.516 19.819-34.684 31.381-54.503 18.168-29.729 37.987-59.458 57.806-87.535 6.606-9.91 13.213-18.168 18.168-26.426 3.303-4.955 6.606-8.258 6.606-9.91 3.303-4.955 9.91-4.955 13.213 0 1.652 1.652 3.303 4.955 6.606 9.91 4.955 8.258 11.561 16.516 18.168 26.426 19.819 28.077 39.639 57.806 57.806 87.535 11.561 18.168 21.471 36.335 31.381 54.503 33.032 61.11 52.852 109.006 52.852 142.039 0 95.794-77.626 173.419-173.419 173.419zM619.355 380.284c-9.91-16.516-19.819-34.684-31.381-52.852-18.168-29.729-37.987-57.806-56.155-85.884-6.606-9.91-13.213-18.168-18.168-26.426 0 0 0 0 0 0s0 0 0 0c-4.955 8.258-11.561 16.516-18.168 26.426-19.819 28.077-37.987 57.806-56.155 85.884-11.561 18.168-21.471 36.335-31.381 52.852-33.032 57.806-51.2 105.703-51.2 133.781 0 87.535 71.019 156.903 156.903 156.903s156.903-71.019 156.903-156.903c-1.652-29.729-19.819-75.974-51.2-133.781zM512 588.387c-41.29 0-74.323-33.032-74.323-74.323s33.032-74.323 74.323-74.323 74.323 33.032 74.323 74.323-33.032 74.323-74.323 74.323zM512 456.258c-31.381 0-57.806 26.426-57.806 57.806s26.426 57.806 57.806 57.806c31.381 0 57.806-26.426 57.806-57.806s-26.426-57.806-57.806-57.806z" />
<glyph unicode="&#xe614;" glyph-name="nav" horiz-adv-x="939" d="M887.467 925.867h-878.933v-85.333h921.6v85.333zM51.2 635.733h-42.667v-85.333h921.6v85.333h-42.667zM51.2 345.6h-42.667v-85.333h921.6v85.333h-42.667zM51.2 55.467h-42.667v-85.333h921.6v85.333h-42.667z" />
<glyph unicode="&#xe617;" glyph-name="total_clicks" d="M512 951.742c-277.471 0-503.742-226.271-503.742-503.742s226.271-503.742 503.742-503.742 503.742 226.271 503.742 503.742-226.271 503.742-503.742 503.742zM512-39.226c-269.213 0-487.226 218.013-487.226 487.226s218.013 487.226 487.226 487.226 487.226-218.013 487.226-487.226-218.013-487.226-487.226-487.226zM323.716 522.323c-18.168 0-31.381-14.865-31.381-31.381v-156.903c0-18.168 14.865-31.381 31.381-31.381 8.258 0 16.516 3.303 23.123 9.91s9.91 13.213 9.91 23.123v156.903c0 8.258-3.303 16.516-9.91 23.123s-14.865 6.606-23.123 6.606zM338.581 332.387c0-3.303-1.652-8.258-4.955-11.561s-6.606-4.955-11.561-4.955v0c-8.258 0-14.865 6.606-14.865 14.865v156.903c0 8.258 6.606 14.865 14.865 14.865 3.303 0 8.258-1.652 11.561-4.955s4.955-6.606 4.955-11.561v-153.6zM417.858 647.845c-18.168 0-31.381-14.865-31.381-31.381v-282.426c0-8.258 3.303-16.516 9.91-23.123s13.213-9.91 23.123-9.91c18.168 0 31.381 14.865 31.381 31.381v282.426c-1.652 18.168-14.865 33.032-33.032 33.032zM432.723 332.387c0-8.258-6.606-14.865-14.865-14.865v0c-3.303 0-8.258 1.652-11.561 4.955s-4.955 6.606-4.955 11.561v282.426c0 8.258 6.606 14.865 14.865 14.865s14.865-6.606 14.865-14.865l1.652-284.077zM229.574 428.181c-18.168 0-31.381-14.865-31.381-31.381v-62.761c0-8.258 3.303-16.516 9.91-23.123s13.213-9.91 23.123-9.91c18.168 0 31.381 14.865 31.381 31.381v62.761c0 8.258-3.303 16.516-9.91 23.123s-14.865 9.91-23.123 9.91zM244.439 332.387c0-8.258-6.606-14.865-14.865-14.865v0c-3.303 0-8.258 1.652-11.561 4.955s-4.955 6.606-4.955 11.561v62.761c0 8.258 6.606 14.865 14.865 14.865 3.303 0 8.258-1.652 11.561-4.955s4.955-6.606 4.955-11.561v-62.761zM700.284 428.181c-18.168 0-31.381-14.865-31.381-31.381v-62.761c0-18.168 14.865-31.381 31.381-31.381 8.258 0 16.516 3.303 23.123 9.91s9.91 13.213 9.91 23.123v62.761c0 8.258-3.303 16.516-9.91 23.123-6.606 3.303-14.865 6.606-23.123 6.606zM715.148 332.387c0-3.303-1.652-8.258-4.955-11.561s-6.606-4.955-11.561-4.955v0c-8.258 0-14.865 6.606-14.865 14.865v62.761c0 8.258 6.606 14.865 14.865 14.865 3.303 0 8.258-1.652 11.561-4.955s4.955-6.606 4.955-11.561v-59.458zM794.426 490.942c-18.168 0-31.381-14.865-31.381-31.381v-125.523c0-18.168 14.865-31.381 31.381-31.381 18.168 0 31.381 14.865 31.381 31.381v125.523c0 16.516-13.213 31.381-31.381 31.381zM809.29 332.387c0-8.258-6.606-14.865-14.865-14.865v0c-8.258 0-14.865 6.606-14.865 14.865v125.523c0 8.258 6.606 14.865 14.865 14.865s14.865-6.606 14.865-14.865v-125.523zM512 553.703c-18.168 0-31.381-14.865-31.381-31.381v-188.284c0-8.258 3.303-16.516 9.91-23.123s13.213-9.91 23.123-9.91c8.258 0 16.516 3.303 23.123 9.91s9.91 13.213 9.91 23.123v188.284c0 8.258-3.303 16.516-9.91 23.123-8.258 4.955-16.516 8.258-24.774 8.258zM526.865 332.387c0-3.303-1.652-8.258-4.955-11.561s-6.606-4.955-11.561-4.955v0c-3.303 0-8.258 1.652-11.561 4.955s-4.955 6.606-4.955 11.561v188.284c0 8.258 6.606 14.865 14.865 14.865 3.303 0 8.258-1.652 11.561-4.955s4.955-6.606 4.955-11.561l1.652-186.632zM606.142 490.942c-18.168 0-31.381-14.865-31.381-31.381v-125.523c0-8.258 3.303-16.516 9.91-23.123s13.213-9.91 23.123-9.91c8.258 0 16.516 3.303 23.123 9.91s9.91 13.213 9.91 23.123v125.523c-3.303 16.516-16.516 31.381-34.684 31.381zM621.006 332.387c0-3.303-1.652-8.258-4.955-11.561s-6.606-4.955-11.561-4.955v0c-3.303 0-8.258 1.652-11.561 4.955s-4.955 6.606-4.955 11.561v125.523c0 8.258 6.606 14.865 14.865 14.865s14.865-6.606 14.865-14.865l3.303-125.523z" />
<glyph unicode="&#xe618;" glyph-name="external_link" d="M979.907 918.847h-909.474c-14.883 0-26.947-12.065-26.947-26.947v-909.474c0-14.883 12.065-26.947 26.947-26.947h909.474c14.883 0 26.947 12.065 26.947 26.947v909.474c0 14.883-12.065 26.947-26.947 26.947v0zM979.907 864.952l-26.947 26.947v-909.474l26.947 26.947h-909.474l26.947-26.947v909.474l-26.947-26.947h909.474zM286.517 174.554l471.647 471.559c10.525 10.523 10.526 27.585 0.004 38.109s-27.585 10.526-38.109 0.004l-471.647-471.559c-10.525-10.523-10.526-27.585-0.004-38.109s27.585-10.526 38.109-0.004v0zM353.442 682.834h430.317l-26.947 26.947v-430.238c0-14.883 12.065-26.947 26.947-26.947s26.947 12.065 26.947 26.947v430.238c0 14.883-12.065 26.947-26.947 26.947h-430.317c-14.883 0-26.947-12.065-26.947-26.947s12.065-26.947 26.947-26.947v0z" />
<glyph unicode="&#xe619;" glyph-name="arrow" horiz-adv-x="1654" d="M1481.584 427.234h-1402.815c-21.752 0-39.385 17.633-39.385 39.385s17.633 39.385 39.385 39.385h1400.609l-350.342 347.256c-15.449 15.312-15.559 40.249-0.246 55.698s40.249 15.559 55.698 0.246l418.825-415.135c15.451-15.315 15.559-40.256 0.24-55.704l-418.825-422.359c-15.316-15.445-40.253-15.55-55.698-0.234s-15.55 40.253-0.234 55.698l352.788 355.765z" />
<glyph unicode="&#xe61a;" glyph-name="dark_traffic" d="M642.477 666.013c-23.123 0-41.29-18.168-41.29-41.29 0-11.561 4.955-21.471 13.213-29.729l-1.652-1.652-49.548-82.581-3.303-4.955c-9.91 4.955-21.471 9.91-33.032 9.91-6.606 0-13.213-1.652-18.168-3.303l-33.032 94.142c26.426 13.213 44.594 39.639 44.594 71.019 0 44.594-36.335 79.277-79.277 79.277s-79.277-36.335-79.277-79.277 36.335-79.277 79.277-79.277c6.606 0 13.213 1.652 19.819 3.303l33.032-94.142c-19.819-11.561-33.032-33.032-33.032-57.806 0-14.865 4.955-28.077 13.213-39.639l-75.974-69.368c-6.606 3.303-13.213 6.606-21.471 6.606-19.819 0-37.987-16.516-37.987-37.987 0-19.819 16.516-37.987 37.987-37.987 19.819 0 37.987 16.516 37.987 37.987 0 6.606-1.652 13.213-4.955 18.168l75.974 69.368c11.561-9.91 26.426-16.516 42.942-16.516 36.335 0 67.716 29.729 67.716 67.716 0 18.168-8.258 36.335-19.819 47.897l3.303 6.606 49.548 82.581 1.652 1.652c4.955-1.652 9.91-3.303 14.865-3.303 23.123 0 41.29 18.168 41.29 41.29-3.303 23.123-21.471 41.29-44.594 41.29zM374.916 675.923c0 34.684 28.077 64.413 64.413 64.413 34.684 0 64.413-28.077 64.413-64.413 0-34.684-28.077-64.413-64.413-64.413-36.335 1.652-64.413 29.729-64.413 64.413zM374.916 284.49c-11.561 0-23.123 9.91-23.123 23.123 0 11.561 9.91 23.123 23.123 23.123 11.561 0 23.123-9.91 23.123-23.123s-9.91-23.123-23.123-23.123zM578.065 448c0-28.077-23.123-52.852-52.852-52.852-28.077 0-52.852 23.123-52.852 52.852 0 28.077 23.123 52.852 52.852 52.852 29.729-1.652 52.852-24.774 52.852-52.852zM642.477 599.948c-13.213 0-24.774 11.561-24.774 24.774s11.561 24.774 24.774 24.774 24.774-11.561 24.774-24.774-11.561-24.774-24.774-24.774zM239.484 431.484c-31.381 0-57.806-26.426-57.806-57.806s26.426-57.806 57.806-57.806c31.381 0 57.806 26.426 57.806 57.806s-24.774 57.806-57.806 57.806zM239.484 330.735c-23.123 0-42.942 19.819-42.942 42.942s19.819 42.942 42.942 42.942c23.123 0 42.942-19.819 42.942-42.942 1.652-24.774-18.168-42.942-42.942-42.942zM275.819 578.477c-23.123 0-41.29-18.168-41.29-41.29s18.168-41.29 41.29-41.29c23.123 0 41.29 18.168 41.29 41.29s-19.819 41.29-41.29 41.29zM275.819 512.413c-13.213 0-24.774 11.561-24.774 24.774s11.561 24.774 24.774 24.774c13.213 0 24.774-11.561 24.774-24.774s-11.561-24.774-24.774-24.774zM741.574 368.723c-23.123 0-41.29-18.168-41.29-41.29s18.168-41.29 41.29-41.29c23.123 0 41.29 18.168 41.29 41.29s-18.168 41.29-41.29 41.29zM741.574 302.658c-13.213 0-24.774 11.561-24.774 24.774s11.561 24.774 24.774 24.774 24.774-11.561 24.774-24.774-11.561-24.774-24.774-24.774zM792.774 580.129c-36.335 0-66.065-29.729-66.065-66.065s29.729-66.065 66.065-66.065c36.335 0 66.065 29.729 66.065 66.065s-29.729 66.065-66.065 66.065zM792.774 464.516c-28.077 0-49.548 21.471-49.548 49.548s21.471 49.548 49.548 49.548c28.077 0 49.548-21.471 49.548-49.548s-21.471-49.548-49.548-49.548zM558.245 276.232c-41.29 0-74.323-33.032-74.323-74.323s33.032-74.323 74.323-74.323 74.323 33.032 74.323 74.323-33.032 74.323-74.323 74.323zM558.245 145.755c-31.381 0-56.155 24.774-56.155 56.155s24.774 56.155 56.155 56.155 56.155-24.774 56.155-56.155-24.774-56.155-56.155-56.155zM512 951.742c-277.471 0-503.742-226.271-503.742-503.742s226.271-503.742 503.742-503.742 503.742 226.271 503.742 503.742-226.271 503.742-503.742 503.742zM512-39.226c-269.213 0-487.226 218.013-487.226 487.226s218.013 487.226 487.226 487.226 487.226-218.013 487.226-487.226-218.013-487.226-487.226-487.226z" />
<glyph unicode="&#xe61b;" glyph-name="no_apps_connected" horiz-adv-x="1143" d="M1054.958 602.791h-111.926v292.912c0 28.577-23.814 52.391-54.772 52.391h-826.344c-28.577 0-54.772-23.814-54.772-52.391v-507.237c0-28.577 23.814-52.391 54.772-52.391h302.437v-73.823h-111.926c-7.144 0-14.288-7.144-14.288-14.288s7.144-14.288 14.288-14.288h392.93c7.144 0 14.288 7.144 14.288 14.288s-7.144 14.288-14.288 14.288h-111.926v73.823h197.656v-321.488c0-38.102 30.958-69.060 69.060-69.060h247.665c38.102 0 69.060 30.958 69.060 69.060v521.526c7.144 35.721-23.814 66.679-61.916 66.679zM509.619 259.87h-114.307v73.823h114.307v-73.823zM735.851 362.27h-673.935c-14.288 0-26.195 11.907-26.195 23.814v509.619c0 14.288 11.907 23.814 26.195 23.814h826.344c14.288 0 26.195-11.907 26.195-23.814v-292.912h-50.009v252.428c0 7.144-7.144 14.288-14.288 14.288h-747.758c-7.144 0-14.288-7.144-14.288-14.288v-431.033c0-7.144 7.144-14.288 14.288-14.288h633.451v-47.628zM735.851 533.73v-92.874h-619.163v402.456h719.181v-238.14h-30.958c-38.102-2.381-69.060-33.34-69.060-71.442zM1095.442 12.205c0-21.433-19.051-40.484-40.484-40.484h-247.665c-23.814 0-40.484 19.051-40.484 40.484v64.298h331.014v-64.298zM1095.442 105.079h-331.014v352.447h331.014v-352.447zM1095.442 486.102h-331.014v47.628c0 21.433 19.051 40.484 40.484 40.484h247.665c23.814 0 40.484-19.051 40.484-40.484v-47.628zM862.065 28.874h138.121c7.144 0 14.288 7.144 14.288 14.288s-7.144 14.288-14.288 14.288h-138.121c-7.144 0-14.288-7.144-14.288-14.288s4.763-14.288 14.288-14.288zM931.126 562.307c-16.67 0-28.577-11.907-28.577-28.577s11.907-28.577 28.577-28.577c16.67 0 28.577 11.907 28.577 28.577s-14.288 28.577-28.577 28.577zM931.126 533.73c0 0-2.381 0 0 0-2.381 0 0 2.381 0 0 0 2.381 0 0 0 0s0 0 0 0z" />
<glyph unicode="&#xe61c;" glyph-name="ameba" d="M512 960c-282.020 0-512-229.98-512-512s229.98-512 512-512 512 229.98 512 512-229.98 512-512 512zM512-47.213c-273.626 0-495.213 221.587-495.213 495.213s221.587 495.213 495.213 495.213 495.213-221.587 495.213-495.213-221.587-495.213-495.213-495.213zM434.78 548.721c-13.43 0-25.18-11.751-25.18-25.18s11.751-25.18 25.18-25.18c13.43 0 25.18 11.751 25.18 25.18s-11.751 25.18-25.18 25.18zM434.78 515.148c-5.036 0-8.393 3.357-8.393 8.393s3.357 8.393 8.393 8.393c5.036 0 8.393-3.357 8.393-8.393s-3.357-8.393-8.393-8.393zM565.718 548.721c-13.43 0-25.18-11.751-25.18-25.18s11.751-25.18 25.18-25.18c13.43 0 25.18 11.751 25.18 25.18s-11.751 25.18-25.18 25.18zM565.718 515.148c-5.036 0-8.393 3.357-8.393 8.393s3.357 8.393 8.393 8.393c5.036 0 8.393-3.357 8.393-8.393s-3.357-8.393-8.393-8.393zM706.728 493.325c-11.751 6.715-18.466 16.787-21.823 28.538-1.679 5.036-1.679 10.072-1.679 13.43v6.715c-1.679 23.502-18.466 41.967-41.967 45.325h-13.43c-6.715 0-11.751 1.679-16.787 6.715-8.393 8.393-13.43 18.466-15.108 33.574-1.679 16.787-6.715 35.252-21.823 50.361-16.787 15.108-38.61 21.823-67.148 18.466-11.751-1.679-21.823-6.715-30.216-16.787s-15.108-20.144-20.144-35.252c-3.357-8.393-8.393-13.43-15.108-15.108s-15.108-5.036-23.502-5.036c-28.538-1.679-47.003-16.787-55.397-41.967-3.357-10.072-8.393-15.108-20.144-18.466l-23.502-6.715c-16.787-5.036-30.216-13.43-40.289-26.859-26.859-30.216-20.144-82.256 3.357-107.436 8.393-8.393 16.787-15.108 28.538-18.466l10.072-3.357c6.715-1.679 10.072-5.036 13.43-10.072 1.679-5.036 0-11.751-3.357-16.787l-10.072-13.43c-13.43-16.787-18.466-36.931-16.787-57.075 3.357-30.216 30.216-60.433 67.148-58.754 20.144 1.679 33.574-5.036 41.967-23.502l1.679-3.357c8.393-11.751 20.144-20.144 33.574-23.502 38.61-8.393 75.541 10.072 94.007 45.325l8.393 18.466c1.679 5.036 5.036 6.715 8.393 8.393 6.715 1.679 13.43 0 16.787-6.715s6.715-15.108 10.072-21.823l1.679-5.036c13.43-33.574 41.967-53.718 77.22-53.718 0 0 0 0 0 0h3.357c18.466 0 36.931 8.393 50.361 21.823 13.43 15.108 21.823 33.574 20.144 53.718-1.679 35.252-30.216 68.826-65.469 73.862-6.715 1.679-13.43 3.357-20.144 6.715-3.357 1.679-5.036 3.357-5.036 8.393 0 6.715 3.357 8.393 5.036 8.393l45.325 11.751c25.18 8.393 40.289 25.18 47.003 53.718 5.036 25.18 0 45.325-15.108 60.433-6.715 5.036-15.108 10.072-23.502 15.108zM730.23 419.462c-5.036-21.823-15.108-35.252-35.252-41.967l-31.895-8.393-13.43-3.357c-10.072-3.357-15.108-11.751-16.787-23.502 0-10.072 5.036-20.144 15.108-23.502 8.393-3.357 16.787-6.715 25.18-6.715 26.859-3.357 50.361-30.216 50.361-57.075 0-16.787-5.036-31.895-15.108-41.967s-23.502-16.787-36.931-16.787h-3.357c-26.859 0-50.361 16.787-62.111 43.646l-1.679 5.036c-3.357 8.393-6.715 16.787-10.072 23.502-6.715 13.43-20.144 18.466-35.252 15.108-8.393-1.679-15.108-6.715-20.144-16.787l-10.072-18.466c-15.108-30.216-43.646-43.646-75.541-36.931-10.072 1.679-18.466 8.393-23.502 16.787l-1.679 1.679c-11.751 21.823-30.216 31.895-57.075 31.895-26.859-1.679-47.003 21.823-50.361 43.646-1.679 16.787 1.679 31.895 13.43 45.325l10.072 15.108c6.715 10.072 8.393 21.823 5.036 31.895s-11.751 16.787-23.502 20.144l-10.072 3.357c-8.393 3.357-15.108 6.715-20.144 13.43-18.466 20.144-23.502 63.79-3.357 85.613 8.393 10.072 18.466 16.787 33.574 21.823l23.502 6.715c15.108 5.036 25.18 15.108 30.216 28.538 6.715 20.144 20.144 30.216 41.967 30.216 10.072 0 20.144 3.357 28.538 5.036 13.43 3.357 21.823 13.43 26.859 26.859 3.357 11.751 10.072 21.823 16.787 28.538s11.751 10.072 20.144 11.751c23.502 3.357 40.289-1.679 53.718-13.43 11.751-10.072 15.108-26.859 16.787-40.289 3.357-18.466 10.072-33.574 21.823-43.646 8.393-6.715 18.466-10.072 28.538-10.072h11.751c15.108-1.679 25.18-13.43 26.859-30.216v-6.715c0-5.036 0-10.072 1.679-16.787 3.357-16.787 13.43-30.216 28.538-40.289 6.715-5.036 15.108-8.393 20.144-15.108 6.715-10.072 10.072-23.502 6.715-43.646z" />
<glyph unicode="&#xe61d;" glyph-name="googleplus" d="M512 960c-282.020 0-512-229.98-512-512s229.98-512 512-512 512 229.98 512 512-229.98 512-512 512zM512-47.213c-273.626 0-495.213 221.587-495.213 495.213s221.587 495.213 495.213 495.213 495.213-221.587 495.213-495.213-221.587-495.213-495.213-495.213zM599.292 474.859h-196.407v-82.256h105.757c-8.393-26.859-35.252-65.469-97.364-65.469-60.433 0-110.793 50.361-110.793 112.472s48.682 112.472 110.793 112.472c35.252 0 57.075-15.108 70.505-26.859l5.036-5.036 63.79 62.111-6.715 6.715c-36.931 33.574-82.256 52.039-134.295 52.039-109.115 0-199.764-88.97-199.764-199.764s88.97-199.764 199.764-199.764c112.472 0 191.37 80.577 191.37 194.728 0 13.43-1.679 23.502-3.357 33.574l1.679 5.036zM411.279 256.63c-100.721 0-182.977 82.256-182.977 182.977s82.256 182.977 182.977 182.977c43.646 0 83.934-15.108 115.83-41.967l-40.289-38.61c-15.108 13.43-40.289 26.859-75.541 26.859-70.505 0-127.58-57.075-127.58-129.259s57.075-129.259 127.58-129.259c80.577 0 112.472 58.754 115.83 88.97l1.679 10.072h-109.115v48.682h164.511c1.679-6.715 1.679-13.43 1.679-23.502 0-105.757-70.505-177.941-174.584-177.941zM773.875 530.256h-70.505v-53.718h-53.718v-70.505h53.718v-53.718h70.505v53.718h53.718v70.505h-53.718v53.718zM812.485 458.072v-36.931h-53.718v-53.718h-36.931v53.718h-53.718v36.931h53.718v53.718h36.931v-53.718h53.718z" />
<glyph unicode="&#xe61e;" glyph-name="linkedin" d="M512 960c-282.020 0-512-229.98-512-512s229.98-512 512-512 512 229.98 512 512-229.98 512-512 512zM512-47.213c-273.626 0-495.213 221.587-495.213 495.213s221.587 495.213 495.213 495.213 495.213-221.587 495.213-495.213-221.587-495.213-495.213-495.213zM644.616 520.184c-23.502 0-45.325-6.715-63.79-16.787-3.357-1.679-6.715-3.357-10.072-6.715v15.108c0 5.036-3.357 8.393-8.393 8.393h-105.757c-5.036 0-8.393-3.357-8.393-8.393 0-8.393 0-58.754 0-135.974 0-21.823 0-47.003 0-72.184 0-16.787 0-33.574 0-47.003 0-8.393 0-8.393 0-13.43 0-3.357 0-3.357 0-5.036 0-5.036 3.357-8.393 8.393-8.393h105.757c5.036 0 8.393 3.357 8.393 8.393v147.725c0 18.466 15.108 33.574 33.574 33.574s33.574-15.108 33.574-33.574v-147.725c0-5.036 3.357-8.393 8.393-8.393h105.757c5.036 0 8.393 3.357 8.393 8.393v141.010c-1.679 87.292-47.003 141.010-115.83 141.010zM741.98 246.557h-88.97v139.331c0 28.538-21.823 50.361-50.361 50.361s-50.361-21.823-50.361-50.361v-139.331h-88.97c0 3.357 0 5.036 0 10.072 0 15.108 0 30.216 0 47.003 0 25.18 0 48.682 0 72.184 0 63.79 0 109.115 0 127.58h88.97v-23.502c0-6.715 8.393-11.751 13.43-6.715 0 0 3.357 1.679 5.036 3.357 5.036 3.357 10.072 6.715 15.108 10.072 16.787 8.393 35.252 13.43 57.075 13.43 60.433 0 99.043-45.325 99.043-124.223v-129.259zM412.957 520.184h-105.757c-5.036 0-8.393-3.357-8.393-8.393v-273.626c0-5.036 3.357-8.393 8.393-8.393h105.757c5.036 0 8.393 3.357 8.393 8.393v273.626c0 5.036-3.357 8.393-8.393 8.393zM404.564 503.397v-256.839h-88.97v256.839h88.97zM360.918 666.23c-36.931 0-62.111-25.18-62.111-58.754s25.18-60.433 60.433-60.433v0c36.931 0 62.111 26.859 62.111 60.433s-25.18 58.754-60.433 58.754zM360.918 563.83v0c-26.859 0-45.325 20.144-45.325 43.646 0 25.18 18.466 41.967 45.325 41.967s43.646-18.466 45.325-43.646c0-23.502-18.466-41.967-45.325-41.967z" />
<glyph unicode="&#xe61f;" glyph-name="livejournal" d="M512 960c-282.020 0-512-229.98-512-512s229.98-512 512-512 512 229.98 512 512-229.98 512-512 512zM512-47.213c-273.626 0-495.213 221.587-495.213 495.213s221.587 495.213 495.213 495.213 495.213-221.587 495.213-495.213-221.587-495.213-495.213-495.213zM523.751 676.302c-33.574 0-67.148-6.715-95.685-18.466l-60.433 60.433h-3.357c-18.466-1.679-47.003-13.43-82.256-45.325-5.036-5.036-10.072-10.072-15.108-15.108-15.108-16.787-25.18-35.252-33.574-53.718-5.036-11.751-6.715-20.144-8.393-25.18v-5.036l3.357-3.357 55.397-57.075c-11.751-28.538-18.466-60.433-18.466-94.007 0-141.010 115.83-256.839 256.839-256.839s256.839 115.83 256.839 256.839-114.151 256.839-255.161 256.839zM243.41 578.938c1.679 0 1.679 0 0 0 1.679 6.715 3.357 11.751 5.036 16.787 6.715 16.787 16.787 33.574 30.216 48.682 3.357 5.036 8.393 10.072 13.43 13.43 18.466 16.787 36.931 28.538 53.718 35.252 6.715 3.357 11.751 5.036 15.108 5.036l48.682-48.682c-52.039-25.18-94.007-67.148-119.187-120.866l-47.003 50.361zM654.689 288.525l-75.541 15.108c0 1.679 1.679 5.036 3.357 10.072 3.357 8.393 8.393 16.787 15.108 25.18 1.679 1.679 3.357 3.357 5.036 5.036 3.357 3.357 5.036 5.036 8.393 6.715 6.715 5.036 13.43 8.393 20.144 10.072 3.357 1.679 6.715 1.679 8.393 1.679l15.108-73.862zM599.292 365.744c-3.357-3.357-6.715-5.036-10.072-8.393-1.679-1.679-3.357-3.357-5.036-5.036-13.43-15.108-20.144-31.895-21.823-43.646l-52.039 10.072v3.357c0 1.679 0 3.357 1.679 5.036 1.679 5.036 3.357 10.072 6.715 16.787 8.393 16.787 20.144 35.252 36.931 52.039s33.574 26.859 48.682 31.895c8.393 3.357 15.108 5.036 18.466 5.036l10.072-50.361c-6.715-3.357-20.144-8.393-33.574-16.787zM545.574 406.033c-18.466-18.466-31.895-36.931-40.289-57.075-5.036-11.751-8.393-20.144-8.393-26.859l-191.37 193.049c23.502 53.718 67.148 95.685 119.187 120.866l191.37-191.37c-20.144 0-43.646-11.751-70.505-38.61zM523.751 179.41c-132.616 0-240.052 107.436-240.052 240.052 0 28.538 5.036 55.397 13.43 80.577l193.049-196.407h3.357l169.548-33.574 11.751-1.679-3.357 11.751-35.252 164.511v1.679l-196.407 196.407c25.18 10.072 53.718 15.108 82.256 15.108 132.616 0 240.052-107.436 240.052-240.052 1.679-130.938-105.757-238.374-238.374-238.374z" />
<glyph unicode="&#xe620;" glyph-name="orkut" d="M512 960c-282.020 0-512-229.98-512-512s229.98-512 512-512 512 229.98 512 512-229.98 512-512 512zM512-47.213c-273.626 0-495.213 221.587-495.213 495.213s221.587 495.213 495.213 495.213 495.213-221.587 495.213-495.213-221.587-495.213-495.213-495.213zM512 691.41c-144.367 0-260.197-115.83-260.197-260.197s115.83-260.197 260.197-260.197 260.197 115.83 260.197 260.197-115.83 260.197-260.197 260.197zM512 187.803c-134.295 0-243.41 109.115-243.41 243.41s109.115 243.41 243.41 243.41 243.41-109.115 243.41-243.41-109.115-243.41-243.41-243.41zM512 590.689c-87.292 0-159.475-72.184-159.475-159.475s72.184-159.475 159.475-159.475c87.292 0 159.475 72.184 159.475 159.475s-72.184 159.475-159.475 159.475zM512 288.525c-78.898 0-142.689 63.79-142.689 142.689s63.79 142.689 142.689 142.689c78.898 0 142.689-63.79 142.689-142.689s-63.79-142.689-142.689-142.689z" />
<glyph unicode="&#xe621;" glyph-name="othersites" d="M512 960c-282.020 0-512-229.98-512-512s229.98-512 512-512 512 229.98 512 512-229.98 512-512 512zM512-47.213c-273.626 0-495.213 221.587-495.213 495.213s221.587 495.213 495.213 495.213 495.213-221.587 495.213-495.213-221.587-495.213-495.213-495.213zM716.8 639.37h-402.885c-28.538 0-50.361-23.502-50.361-50.361v-297.128c0-28.538 23.502-50.361 50.361-50.361h402.885c28.538 0 50.361 23.502 50.361 50.361v297.128c0 26.859-23.502 50.361-50.361 50.361zM313.915 622.584h402.885c18.466 0 33.574-15.108 33.574-33.574v-55.397h-471.711v55.397c0 18.466 15.108 33.574 35.252 33.574zM716.8 256.63h-402.885c-18.466 0-33.574 15.108-33.574 33.574v224.944h471.711v-224.944c-1.679-18.466-16.787-33.574-35.252-33.574zM334.059 548.721c13.43 0 25.18 11.751 25.18 25.18s-11.751 25.18-25.18 25.18c-13.43 0-25.18-11.751-25.18-25.18s11.751-25.18 25.18-25.18zM334.059 582.295c5.036 0 8.393-3.357 8.393-8.393s-3.357-8.393-8.393-8.393c-5.036 0-8.393 3.357-8.393 8.393s3.357 8.393 8.393 8.393zM397.849 548.721c13.43 0 25.18 11.751 25.18 25.18s-11.751 25.18-25.18 25.18c-13.43 0-25.18-11.751-25.18-25.18s11.751-25.18 25.18-25.18zM397.849 582.295c5.036 0 8.393-3.357 8.393-8.393s-3.357-8.393-8.393-8.393c-5.036 0-8.393 3.357-8.393 8.393s3.357 8.393 8.393 8.393zM461.639 548.721c13.43 0 25.18 11.751 25.18 25.18s-11.751 25.18-25.18 25.18-25.18-11.751-25.18-25.18 11.751-25.18 25.18-25.18zM461.639 582.295c5.036 0 8.393-3.357 8.393-8.393s-3.357-8.393-8.393-8.393-8.393 3.357-8.393 8.393 3.357 8.393 8.393 8.393z" />
<glyph unicode="&#xe622;" glyph-name="pinterest" d="M512 960c-282.020 0-512-229.98-512-512s229.98-512 512-512 512 229.98 512 512-229.98 512-512 512zM512-47.213c-273.626 0-495.213 221.587-495.213 495.213s221.587 495.213 495.213 495.213 495.213-221.587 495.213-495.213-221.587-495.213-495.213-495.213zM530.466 683.016c-130.938 0-219.908-87.292-219.908-189.692 0-57.075 23.502-100.721 65.469-117.508 11.751-5.036 23.502 0 26.859 13.43 0 1.679 1.679 5.036 3.357 11.751 0 0 0 0 0 0 1.679 6.715 1.679 10.072 3.357 11.751 3.357 10.072 1.679 15.108-6.715 23.502-11.751 13.43-16.787 30.216-16.787 52.039 0 72.184 57.075 130.938 137.652 130.938 72.184 0 114.151-40.289 114.151-102.4 0-82.256-36.931-146.046-85.613-146.046-26.859 0-45.325 20.144-38.61 45.325 1.679 6.715 3.357 11.751 5.036 20.144 1.679 5.036 3.357 10.072 5.036 16.787 13.43 40.289 16.787 53.718 16.787 68.826 0 30.216-18.466 52.039-48.682 52.039-36.931 0-65.469-36.931-65.469-83.934 0-13.43 1.679-25.18 5.036-35.252 1.679-5.036 3.357-8.393 3.357-11.751s-1.679-6.715-5.036-21.823c-6.715-25.18-8.393-36.931-13.43-55.397 0 0 0 0 0 0-10.072-40.289-16.787-67.148-18.466-77.22-1.679-8.393-3.357-16.787-5.036-25.18-1.679-21.823-1.679-47.003 1.679-70.505 0-6.715 1.679-11.751 1.679-16.787 1.679-11.751 15.108-13.43 21.823-5.036 0 0 1.679 3.357 3.357 3.357 1.679 3.357 5.036 5.036 6.715 8.393 6.715 8.393 13.43 18.466 18.466 28.538 11.751 18.466 20.144 38.61 25.18 55.397 0 0 0 0 0 0 1.679 5.036 5.036 18.466 10.072 38.61 0 0 0 0 0 0 1.679 8.393 5.036 16.787 6.715 25.18 16.787-15.108 41.967-26.859 68.826-26.859 99.043 0 167.869 87.292 167.869 206.479 1.679 94.007-82.256 172.905-194.728 172.905zM559.003 318.741c-28.538 0-55.397 15.108-65.469 31.895-3.357 6.715-13.43 5.036-15.108-1.679 0-3.357-1.679-6.715-3.357-13.43-1.679-10.072-5.036-18.466-6.715-28.538 0 0 0 0 0 0-5.036-20.144-8.393-33.574-10.072-38.61 0 0 0 0 0 0-5.036-16.787-13.43-33.574-23.502-52.039-5.036-10.072-11.751-18.466-18.466-26.859-1.679-1.679-1.679-3.357-3.357-5.036 0 1.679 0 3.357 0 6.715-1.679 21.823-3.357 45.325-1.679 67.148 1.679 8.393 1.679 16.787 3.357 23.502 1.679 10.072 8.393 36.931 18.466 77.22 0 0 0 0 0 0 5.036 16.787 6.715 30.216 13.43 55.397 5.036 20.144 5.036 20.144 6.715 25.18 0 1.679 0 3.357 0 5.036-1.679 1.679-3.357 5.036-3.357 11.751-3.357 10.072-5.036 20.144-5.036 30.216 0 38.61 21.823 67.148 48.682 67.148 20.144 0 31.895-13.43 31.895-35.252 0-13.43-3.357-25.18-15.108-63.79-1.679-6.715-3.357-11.751-5.036-16.787-1.679-6.715-3.357-13.43-5.036-20.144-8.393-35.252 18.466-65.469 55.397-65.469 60.433 0 102.4 72.184 102.4 162.833 0 70.505-50.361 119.187-130.938 119.187-90.649 0-154.439-65.469-154.439-147.725 0-25.18 6.715-45.325 21.823-62.111 3.357-5.036 3.357-3.357 1.679-8.393 0-1.679-1.679-5.036-3.357-11.751 0 0 0 0 0 0-1.679-6.715-1.679-10.072-3.357-11.751 0-1.679-1.679-3.357-3.357-1.679-35.252 13.43-55.397 52.039-55.397 102.4 0 92.328 82.256 172.905 203.121 172.905 104.079 0 179.62-70.505 179.62-157.797-3.357-110.793-65.469-189.692-154.439-189.692z" />
<glyph unicode="&#xe623;" glyph-name="reddit" d="M512 960c-282.020 0-512-229.98-512-512s229.98-512 512-512 512 229.98 512 512-229.98 512-512 512zM512-47.213c-273.626 0-495.213 221.587-495.213 495.213s221.587 495.213 495.213 495.213 495.213-221.587 495.213-495.213-221.587-495.213-495.213-495.213zM582.505 308.669c-20.144-11.751-47.003-18.466-75.541-18.466s-55.397 6.715-75.541 18.466c-3.357 1.679-8.393 1.679-11.751-3.357-1.679-3.357-1.679-8.393 3.357-11.751 23.502-13.43 53.718-21.823 83.934-21.823 31.895 0 60.433 6.715 83.934 21.823 3.357 1.679 5.036 6.715 3.357 11.751-3.357 3.357-8.393 5.036-11.751 3.357zM595.934 442.964c-23.502 0-41.967-18.466-41.967-41.967s18.466-41.967 41.967-41.967c23.502 0 41.967 18.466 41.967 41.967 1.679 21.823-18.466 41.967-41.967 41.967zM595.934 374.138c-13.43 0-25.18 11.751-25.18 25.18s11.751 25.18 25.18 25.18 25.18-11.751 25.18-25.18c1.679-13.43-10.072-25.18-25.18-25.18zM458.282 399.318c0 23.502-18.466 41.967-41.967 41.967s-41.967-18.466-41.967-41.967c0-23.502 18.466-41.967 41.967-41.967s41.967 20.144 41.967 41.967zM416.315 374.138c-13.43 0-25.18 11.751-25.18 25.18s11.751 25.18 25.18 25.18 25.18-11.751 25.18-25.18c0-13.43-11.751-25.18-25.18-25.18zM710.085 510.111c-21.823 0-41.967-11.751-53.718-28.538-36.931 23.502-87.292 38.61-141.010 40.289 0 13.43 1.679 28.538 6.715 45.325 13.43 48.682 43.646 65.469 100.721 31.895 3.357-33.574 30.216-60.433 63.79-60.433 35.252 0 65.469 28.538 65.469 65.469 0 35.252-28.538 65.469-65.469 65.469-31.895 0-57.075-21.823-63.79-52.039-62.111 33.574-100.721 10.072-117.508-47.003-5.036-16.787-6.715-35.252-8.393-48.682-53.718-1.679-104.079-16.787-141.010-40.289-11.751 18.466-31.895 28.538-53.718 28.538-35.252 0-65.469-28.538-65.469-65.469 0-28.538 20.144-53.718 47.003-62.111-1.679-5.036-1.679-11.751-1.679-16.787 0-87.292 100.721-154.439 223.266-154.439s223.266 68.826 223.266 154.439c0 5.036 0 11.751-1.679 16.787 26.859 8.393 47.003 33.574 47.003 62.111 0 36.931-28.538 65.469-63.79 65.469zM686.584 651.121c26.859 0 48.682-21.823 48.682-48.682s-21.823-48.682-48.682-48.682-48.682 21.823-48.682 48.682c1.679 26.859 21.823 48.682 48.682 48.682zM255.161 444.643c0 26.859 21.823 48.682 48.682 48.682 16.787 0 31.895-8.393 40.289-21.823-26.859-20.144-45.325-45.325-53.718-72.184-21.823 6.715-35.252 25.18-35.252 45.325zM506.964 228.092c-114.151 0-206.479 62.111-206.479 137.652s92.328 137.652 206.479 137.652c114.151 0 206.479-62.111 206.479-137.652-1.679-75.541-92.328-137.652-206.479-137.652zM723.515 399.318c-8.393 28.538-28.538 52.039-53.718 72.184 8.393 13.43 23.502 21.823 40.289 21.823 26.859 0 48.682-21.823 48.682-48.682-1.679-20.144-15.108-38.61-35.252-45.325z" />
<glyph unicode="&#xe624;" glyph-name="tumblr" d="M512 951.742c-277.471 0-503.742-226.271-503.742-503.742s226.271-503.742 503.742-503.742 503.742 226.271 503.742 503.742-226.271 503.742-503.742 503.742zM512-39.226c-269.213 0-487.226 218.013-487.226 487.226s218.013 487.226 487.226 487.226 487.226-218.013 487.226-487.226-218.013-487.226-487.226-487.226zM662.297 319.174c-26.426-18.168-54.503-26.426-74.323-21.471-23.123 4.955-36.335 28.077-36.335 72.671v105.703h95.794c4.955 0 8.258 3.303 8.258 8.258v82.581c0 4.955-3.303 8.258-8.258 8.258h-95.794v95.794c0 4.955-3.303 8.258-8.258 8.258h-77.626c-4.955 0-8.258-3.303-8.258-6.606-3.303-23.123-8.258-42.942-16.516-57.806s-18.168-28.077-29.729-37.987c-6.606-4.955-18.168-9.91-33.032-16.516-6.606-1.652-9.91-3.303-24.774-8.258-3.303-1.652-4.955-4.955-4.955-8.258v-57.806c0-4.955 3.303-8.258 8.258-8.258h52.852v-166.813c0-102.4 127.174-158.555 259.303-95.794 3.303 1.652 4.955 4.955 4.955 8.258v90.839c1.652 3.303-6.606 8.258-11.561 4.955zM427.768 307.613v175.071c0 4.955-3.303 8.258-8.258 8.258h-52.852v44.594c9.91 3.303 13.213 4.955 18.168 6.606 16.516 6.606 29.729 11.561 37.987 19.819 14.865 11.561 24.774 26.426 34.684 42.942 8.258 14.865 13.213 34.684 16.516 56.155h62.761v-95.794c0-4.955 3.303-8.258 8.258-8.258h95.794v-66.065h-95.794c-4.955 0-8.258-3.303-8.258-8.258v-113.961c0-51.2 18.168-80.929 49.548-89.187 21.471-4.955 47.897 1.652 74.323 16.516v-71.019c-123.871-54.503-232.877-4.955-232.877 82.581z" />
<glyph unicode="&#xe625;" glyph-name="youtube" d="M512 951.742c-277.471 0-503.742-226.271-503.742-503.742s226.271-503.742 503.742-503.742 503.742 226.271 503.742 503.742-226.271 503.742-503.742 503.742zM512-39.226c-269.213 0-487.226 218.013-487.226 487.226s218.013 487.226 487.226 487.226 487.226-218.013 487.226-487.226-218.013-487.226-487.226-487.226zM662.297 456.258h-302.245c-52.852 0-94.142-42.942-94.142-94.142v-64.413c0-52.852 42.942-94.142 94.142-94.142h302.245c52.852 0 94.142 42.942 94.142 94.142v64.413c0 51.2-41.29 94.142-94.142 94.142zM739.923 297.703c0-42.942-34.684-77.626-77.626-77.626h-302.245c-42.942 0-77.626 34.684-77.626 77.626v64.413c0 42.942 34.684 77.626 77.626 77.626h302.245c42.942 0 77.626-34.684 77.626-77.626v-64.413zM396.387 608.206v-94.142c0-4.955 3.303-8.258 8.258-8.258 1.652 0 1.652 0 3.303 0 3.303 1.652 4.955 4.955 4.955 8.258v94.142l62.761 82.581c3.303 3.303 1.652 8.258-1.652 11.561s-8.258 1.652-11.561-1.652l-57.806-75.974-59.458 75.974c-3.303 3.303-8.258 4.955-11.561 1.652s-4.955-8.258-1.652-11.561l64.413-82.581zM460.8 609.858v-64.413c0-23.123 18.168-41.29 41.29-41.29s41.29 18.168 41.29 41.29v0 64.413c0 23.123-18.168 41.29-41.29 41.29-23.123-1.652-41.29-19.819-41.29-41.29zM477.316 609.858c0 13.213 11.561 24.774 24.774 24.774s24.774-11.561 24.774-24.774v-64.413c0-13.213-11.561-24.774-24.774-24.774s-24.774 11.561-24.774 24.774v64.413zM619.355 504.155c13.213 0 26.426 4.955 34.684 13.213v-3.303c0-4.955 3.303-8.258 8.258-8.258s8.258 3.303 8.258 8.258v41.29c0 0 0 0 0 0v85.884c0 4.955-3.303 8.258-8.258 8.258v0 0c0 0 0 0 0 0-4.955 0-8.258-3.303-8.258-8.258v0 0 0-85.884c0-19.819-14.865-34.684-34.684-34.684s-34.684 14.865-34.684 34.684v85.884c0 4.955-3.303 8.258-8.258 8.258s-8.258-3.303-8.258-8.258v-85.884c0-28.077 23.123-51.2 51.2-51.2zM498.787 363.768c0 3.303-1.652 4.955-4.955 6.606 0 0-1.652 0-1.652 0s-1.652 0-1.652 0c0 0 0 0 0 0s0 0 0 0-1.652 0-1.652 0c0 0-1.652 0-1.652 0s0 0-1.652 0c0 0-1.652 0-1.652-1.652 0 0 0 0 0-1.652 0 0 0-1.652-1.652-1.652 0 0 0-1.652 0-1.652s0-1.652 0-1.652v-64.413c0-6.606-6.606-13.213-13.213-13.213s-13.213 6.606-13.213 13.213v64.413c0 4.955-3.303 8.258-8.258 8.258s-8.258-3.303-8.258-8.258v-64.413c0-16.516 13.213-29.729 29.729-29.729 4.955 0 11.561 1.652 14.865 4.955 1.652-1.652 3.303-3.303 6.606-3.303 4.955 0 8.258 3.303 8.258 8.258v85.884c0-1.652 0-1.652 0 0zM426.116 391.845h-87.535c-4.955 0-8.258-3.303-8.258-8.258s3.303-8.258 8.258-8.258h34.684v-99.097c0-4.955 3.303-8.258 8.258-8.258s8.258 3.303 8.258 8.258v99.097h34.684c4.955 0 8.258 3.303 8.258 8.258 1.652 4.955-1.652 8.258-6.606 8.258zM554.942 370.374c-4.955 0-9.91-1.652-13.213-3.303v37.987c0 4.955-3.303 8.258-8.258 8.258s-8.258-3.303-8.258-8.258v-128.826c0-4.955 3.303-8.258 8.258-8.258 3.303 0 4.955 1.652 6.606 3.303 4.955-3.303 9.91-3.303 14.865-3.303 16.516 0 29.729 13.213 29.729 29.729v42.942c0 16.516-13.213 29.729-29.729 29.729zM568.155 297.703c0-6.606-6.606-13.213-13.213-13.213s-13.213 6.606-13.213 13.213v42.942c0 6.606 6.606 13.213 13.213 13.213s13.213-6.606 13.213-13.213v-42.942zM667.252 299.355c-4.955 0-8.258-3.303-8.258-8.258 0-6.606-6.606-9.91-14.865-9.91-6.606 0-14.865 8.258-14.865 16.516v13.213h34.684c4.955 0 8.258 3.303 8.258 8.258v21.471c0 16.516-13.213 29.729-29.729 29.729s-29.729-13.213-29.729-29.729v-42.942c0-16.516 14.865-33.032 31.381-33.032s31.381 11.561 31.381 26.426c0 4.955-4.955 8.258-8.258 8.258zM640.826 353.858c6.606 0 13.213-6.606 13.213-13.213v-13.213h-26.426v13.213c0 6.606 6.606 13.213 13.213 13.213z" />
<glyph unicode="&#xe900;" glyph-name="deeplink" horiz-adv-x="1385" d="M215.477 246.524c102.395 0 185.359 83.253 185.359 185.898s-82.965 185.898-185.359 185.898c-102.395 0-185.359-83.253-185.359-185.898s82.965-185.898 185.359-185.898v0zM215.477 306.759c-69.081 0-125.124 56.238-125.124 125.663s56.043 125.663 125.124 125.663c69.081 0 125.124-56.238 125.124-125.663s-56.043-125.663-125.124-125.663v0zM1222.534-51.633v0c-9.231-13.837-27.931-17.572-41.768-8.341s-17.572 27.931-8.341 41.768l103.779 155.573-0.065-33.329-103.184 155.988c-9.177 13.873-5.37 32.559 8.503 41.735s32.559 5.37 41.735-8.503l103.184-155.988c6.688-10.11 6.662-23.245-0.065-33.329l-103.779-155.573zM1301.293 150.776v0c16.634-0.012 30.108-13.506 30.096-30.14s-13.506-30.108-30.14-30.096l-283.74 0.208c-120.716 0.23-175.261 45.132-258.053 169.866-72.682 109.502-113.084 142.761-207.982 142.942-16.633 0.032-30.092 13.542-30.060 30.175s13.542 30.092 30.175 30.060c120.716-0.23 175.261-45.132 258.053-169.866 72.682-109.502 113.084-142.761 207.947-142.942l283.704-0.208zM1174.153 883.149v0c-9.177 13.873-5.37 32.559 8.503 41.735s32.559 5.37 41.735-8.503l103.184-155.988c6.688-10.11 6.662-23.245-0.065-33.329l-103.779-155.573c-9.231-13.837-27.931-17.572-41.768-8.341s-17.572 27.931-8.341 41.768l103.779 155.573-0.065-33.329-103.184 155.988zM1302.488 773.899l-284.894 0.208c-120.737 0.23-175.289-44.582-257.983-169.25-72.548-109.372-112.866-142.492-207.707-142.311h-165.257c-16.634 0-30.118-13.484-30.118-30.118s13.484-30.118 30.118-30.118h165.2c120.715-0.23 175.267 44.582 257.961 169.251 72.548 109.372 112.866 142.492 207.707 142.311l284.93-0.208c16.634-0.012 30.127 13.462 30.14 30.096s-13.462 30.127-30.096 30.14v0z" />
<glyph unicode="&#xe901;" glyph-name="audience" d="M512-55.742c278.209 0 503.742 225.533 503.742 503.742s-225.533 503.742-503.742 503.742c-278.209 0-503.742-225.533-503.742-503.742s225.533-503.742 503.742-503.742v0zM512-39.226c-269.087 0-487.226 218.138-487.226 487.226s218.138 487.226 487.226 487.226c269.087 0 487.226-218.138 487.226-487.226s-218.138-487.226-487.226-487.226v0zM421.52 535.535h180.959l-8.258 8.258v-132.129c0-24.538-19.626-44.594-43.445-44.594h-8.258v-166.813l8.258 8.258h-77.554l8.258-8.258v166.813h-8.258c-23.851 0-43.445 20.036-43.445 44.594v132.129l-8.258-8.258zM421.52 552.052h-8.258v-140.387c0-33.598 26.905-61.11 59.961-61.11l-8.258 8.258v-166.813h94.070v166.813l-8.258-8.258c33.021 0 59.961 27.529 59.961 61.11v140.387h-189.217zM568.37 662.71c0-31.964-25.288-57.806-56.37-57.806-31.099 0-56.37 25.833-56.37 57.806s25.271 57.806 56.37 57.806c31.082 0 56.37-25.843 56.37-57.806v0zM584.886 662.71c0 41.006-32.601 74.323-72.886 74.323-40.303 0-72.886-33.308-72.886-74.323s32.584-74.323 72.886-74.323c40.285 0 72.886 33.316 72.886 74.323v0z" />
<glyph unicode="&#xe902;" glyph-name="bitlinks_created" d="M512-55.742c278.209 0 503.742 225.533 503.742 503.742s-225.533 503.742-503.742 503.742c-278.209 0-503.742-225.533-503.742-503.742s225.533-503.742 503.742-503.742v0zM512-39.226c-269.087 0-487.226 218.138-487.226 487.226s218.138 487.226 487.226 487.226c269.087 0 487.226-218.138 487.226-487.226s-218.138-487.226-487.226-487.226v0zM518.034 328.904l-87.618-84.792c-37.579-36.367-85.895-38.99-115.209-10.602l-21.907 21.201c-27.608 26.726-27.608 73.116 0 99.833l120.475 116.589c43.919 42.502 90.71 34.955 125.057-9.363 3.944-5.090 11.268-6.018 16.357-2.073s6.018 11.268 2.073 16.357c-42.32 54.606-105.051 64.724-159.703 11.835l-120.475-116.589c-37.077-35.881-37.077-97.452-0.001-133.344l21.906-21.199c38.778-37.553 101.398-34.154 147.643 10.599l87.618 84.792c4.627 4.478 4.748 11.859 0.27 16.486s-11.859 4.748-16.486 0.27v0zM505.986 560.871l98.571 95.391c25.536 24.72 73.733 18.923 104.262-10.602l21.902-21.195c27.629-26.719 27.629-62.505 0.001-89.232l-131.429-127.189c-25.948-25.111-72.574-19.094-91.814 8.835-3.653 5.303-10.913 6.64-16.215 2.987s-6.64-10.913-2.987-16.215c27.24-39.542 90.687-47.729 127.232-12.363l131.427 127.188c37.099 35.891 37.099 86.868-0.003 122.749l-21.902 21.195c-38.819 37.542-101.119 45.035-136.692 10.598l-98.569-95.39c-4.627-4.478-4.748-11.859-0.27-16.486s11.859-4.748 16.486-0.27v0z" />
<glyph unicode="&#xe903;" glyph-name="back_btn" horiz-adv-x="593" d="M498.885 917.202l-437.976-441.672c-15.721-15.854-15.611-41.452 0.247-57.17l437.976-434.118c15.855-15.715 41.448-15.602 57.163 0.253s15.602 41.448-0.253 57.163l-437.976 434.118 0.247-57.17 437.976 441.672c15.719 15.852 15.611 41.445-0.24 57.163s-41.445 15.611-57.163-0.24v0z" />
<glyph unicode="&#xe904;" glyph-name="unlock_enterprise" horiz-adv-x="796" d="M388.741 334.222c0 5.258 4.218 9.481 9.481 9.481s9.481-4.224 9.481-9.481c0-5.226-4.262-9.481-9.481-9.481s-9.481 4.256-9.481 9.481v0zM445.63 334.222c0 26.211-21.226 47.407-47.407 47.407s-47.407-21.197-47.407-47.407c0-26.143 21.235-47.407 47.407-47.407s47.407 21.264 47.407 47.407v0zM369.778 315.259v-113.778c0-15.709 12.735-28.444 28.444-28.444s28.444 12.735 28.444 28.444v113.778c0 15.709-12.735 28.444-28.444 28.444s-28.444-12.735-28.444-28.444v0zM720.593 571.259h-644.741c-15.709 0-28.444-12.735-28.444-28.444v-530.963c0-15.709 12.735-28.444 28.444-28.444h644.741c15.709 0 28.444 12.735 28.444 28.444v530.963c0 15.709-12.735 28.444-28.444 28.444v0zM720.593 514.37l-28.444 28.444v-530.963l28.444 28.444h-644.741l28.444-28.444v530.963l-28.444-28.444h644.741zM218.074 675.556c0 99.51 80.639 180.148 180.148 180.148 99.486 0 180.148-80.653 180.148-180.148v-132.741h56.889v132.741c0 130.916-106.134 237.037-237.037 237.037-130.928 0-237.037-106.109-237.037-237.037h56.889z" />
<glyph unicode="&#xe905;" glyph-name="date" d="M221.091 839.758h-155.152c-12.853 0-23.273-10.42-23.273-23.273v-814.545c0-12.853 10.42-23.273 23.273-23.273h892.121c12.853 0 23.273 10.42 23.273 23.273v814.545c0 12.853-10.42 23.273-23.273 23.273h-155.152c-12.853 0-23.273-10.42-23.273-23.273s10.42-23.273 23.273-23.273h155.152l-23.273 23.273v-814.545l23.273 23.273h-892.121l23.273-23.273v814.545l-23.273-23.273h155.152c12.853 0 23.273 10.42 23.273 23.273s-10.42 23.273-23.273 23.273zM337.455 762.182h-116.364l23.273-23.273v155.152l-23.273-23.273h116.364l-23.273 23.273v-155.152l23.273 23.273zM337.455 715.636c12.853 0 23.273 10.42 23.273 23.273v155.152c0 12.853-10.42 23.273-23.273 23.273h-116.364c-12.853 0-23.273-10.42-23.273-23.273v-155.152c0-12.853 10.42-23.273 23.273-23.273h116.364zM802.909 762.182h-116.364l23.273-23.273v155.152l-23.273-23.273h116.364l-23.273 23.273v-155.152l23.273 23.273zM802.909 715.636c12.853 0 23.273 10.42 23.273 23.273v155.152c0 12.853-10.42 23.273-23.273 23.273h-116.364c-12.853 0-23.273-10.42-23.273-23.273v-155.152c0-12.853 10.42-23.273 23.273-23.273h116.364zM337.455 797.091h349.091c12.853 0 23.273 10.42 23.273 23.273s-10.42 23.273-23.273 23.273h-349.091c-12.853 0-23.273-10.42-23.273-23.273s10.42-23.273 23.273-23.273v0zM65.939 610.909h892.121c12.853 0 23.273 10.42 23.273 23.273s-10.42 23.273-23.273 23.273h-892.121c-12.853 0-23.273-10.42-23.273-23.273s10.42-23.273 23.273-23.273v0zM261.818 544.97v-465.455c0-9.64 7.815-17.455 17.455-17.455s17.455 7.815 17.455 17.455v465.455c0 9.64-7.815 17.455-17.455 17.455s-17.455-7.815-17.455-17.455zM494.545 544.97v-465.455c0-9.64 7.815-17.455 17.455-17.455s17.455 7.815 17.455 17.455v465.455c0 9.64-7.815 17.455-17.455 17.455s-17.455-7.815-17.455-17.455zM727.273 544.97v-465.455c0-9.64 7.815-17.455 17.455-17.455s17.455 7.815 17.455 17.455v465.455c0 9.64-7.815 17.455-17.455 17.455s-17.455-7.815-17.455-17.455zM143.515 449.939h736.97c9.64 0 17.455 7.815 17.455 17.455s-7.815 17.455-17.455 17.455h-736.97c-9.64 0-17.455-7.815-17.455-17.455s7.815-17.455 17.455-17.455zM143.515 294.788h736.97c9.64 0 17.455 7.815 17.455 17.455s-7.815 17.455-17.455 17.455h-736.97c-9.64 0-17.455-7.815-17.455-17.455s7.815-17.455 17.455-17.455zM143.515 139.636h736.97c9.64 0 17.455 7.815 17.455 17.455s-7.815 17.455-17.455 17.455h-736.97c-9.64 0-17.455-7.815-17.455-17.455s7.815-17.455 17.455-17.455z" />
<glyph unicode="&#xe906;" glyph-name="bitlink_selected" horiz-adv-x="2084" d="M2012.279 960h-1940.837c-39.293 0-71.442-32.149-71.442-71.442v-881.116c0-39.293 32.149-71.442 71.442-71.442h1940.837c39.293 0 71.442 32.149 71.442 71.442v881.116c0 39.293-32.149 71.442-71.442 71.442zM2071.814 7.442c0-33.34-26.195-59.535-59.535-59.535h-1940.837c-33.34 0-59.535 26.195-59.535 59.535v881.116c0 33.34 26.195 59.535 59.535 59.535h1940.837c33.34 0 59.535-26.195 59.535-59.535v-881.116zM178.605 686.14h154.791c20.242 0 35.721 15.479 35.721 35.721v47.628c0 20.242-15.479 35.721-35.721 35.721h-154.791c-20.242 0-35.721-15.479-35.721-35.721v-47.628c0-20.242 15.479-35.721 35.721-35.721zM1893.209 626.605h-1714.605c-20.242 0-35.721-15.479-35.721-35.721v-47.628c0-20.242 15.479-35.721 35.721-35.721h1714.605c20.242 0 35.721 15.479 35.721 35.721v47.628c0 20.242-15.479 35.721-35.721 35.721zM1893.209 448h-1714.605c-20.242 0-35.721-15.479-35.721-35.721v-47.628c0-20.242 15.479-35.721 35.721-35.721h1714.605c20.242 0 35.721 15.479 35.721 35.721v47.628c0 20.242-15.479 35.721-35.721 35.721zM881.116 209.86h-702.512c-20.242 0-35.721-15.479-35.721-35.721v-47.628c0-20.242 15.479-35.721 35.721-35.721h702.512c20.242 0 35.721 15.479 35.721 35.721v47.628c0 20.242-15.479 35.721-35.721 35.721zM1893.209 209.86h-285.767c-20.242 0-35.721-15.479-35.721-35.721v-47.628c0-20.242 15.479-35.721 35.721-35.721h285.767c20.242 0 35.721 15.479 35.721 35.721v47.628c0 20.242-15.479 35.721-35.721 35.721z" />
<glyph unicode="&#xe907;" glyph-name="chrome_settings" d="M827.096 363.789h123.917c14.883 0 26.947 12.065 26.947 26.947v114.526c0 14.883-12.065 26.947-26.947 26.947h-123.956l26.197-20.632c-13.194 54.731-25.22 92.607-41.482 119.266l-3.955-33.092 87.651 87.613c10.528 10.523 10.529 27.588 0.004 38.113l-107.998 107.998c-10.522 10.522-27.581 10.524-38.105 0.004l-87.689-87.651 33.097 3.938c-26.626 16.263-64.308 28.219-119.204 41.452l20.632-26.197v123.994c0 14.883-12.065 26.947-26.947 26.947h-114.526c-14.883 0-26.947-12.065-26.947-26.947v-123.994l20.632 26.197c-54.967-13.25-92.62-25.191-119.242-41.452l33.097-3.938-87.689 87.651c-10.524 10.52-27.583 10.518-38.105-0.004l-107.998-107.998c-10.525-10.525-10.523-27.591 0.004-38.113l87.689-87.651-3.946 33.105c-16.251-26.606-28.186-64.158-41.521-119.214l26.19 20.604h-123.917c-14.883 0-26.947-12.065-26.947-26.947v-114.526c0-14.883 12.065-26.947 26.947-26.947h123.917l-26.19 20.604c13.335-55.056 25.27-92.608 41.521-119.214l3.942 33.101-87.689-87.689c-10.525-10.525-10.523-27.59 0.003-38.113l107.998-107.96c10.526-10.522 27.588-10.519 38.11 0.008l87.651 87.689-33.114-3.941c26.639-16.285 64.19-28.226 119.26-41.565l-20.604 26.19v-123.917c0-14.883 12.065-26.947 26.947-26.947h114.526c14.883 0 26.947 12.065 26.947 26.947v123.917l-20.604-26.19c55.069 13.338 92.61 25.273 119.189 41.53l-33.107 3.925 87.727-87.651c10.525-10.516 27.581-10.512 38.101 0.008l107.96 107.96c10.522 10.522 10.524 27.581 0.004 38.105l-87.651 87.689 3.938-33.097c16.251 26.606 28.186 64.158 41.521 119.214l-26.19-20.604zM827.096 417.684c-12.439 0-23.262-8.514-26.19-20.604-11.947-49.322-22.894-83.767-35.135-103.807-6.486-10.618-4.858-24.297 3.938-33.097l87.651-87.689 0.004 38.105-107.96-107.96 38.101 0.008-87.727 87.651c-8.805 8.797-22.489 10.42-33.107 3.925-20.002-12.234-54.434-23.18-103.755-35.126-12.089-2.928-20.604-13.751-20.604-26.19v-123.917l26.947 26.947h-114.526l26.947-26.947v123.917c0 12.439-8.514 23.262-20.604 26.19-49.333 11.949-83.769 22.899-103.837 35.168-10.623 6.494-24.312 4.865-33.114-3.941l-87.651-87.689 38.11 0.008-107.998 107.96 0.003-38.113 87.689 87.689c8.8 8.8 10.429 22.481 3.942 33.101-12.241 20.040-23.188 54.485-35.135 103.807-2.928 12.089-13.751 20.604-26.19 20.604h-123.917l26.947-26.947v114.526l-26.947-26.947h123.917c12.439 0 23.262 8.514 26.19 20.604 11.947 49.322 22.894 83.767 35.135 103.807 6.488 10.622 4.857 24.306-3.946 33.105l-87.689 87.651 0.004-38.113 107.998 107.998-38.105-0.004 87.689-87.651c8.8-8.796 22.479-10.424 33.097-3.938 20.038 12.24 54.557 23.186 103.779 35.052 12.103 2.918 20.632 13.747 20.632 26.197v123.994l-26.947-26.947h114.526l-26.947 26.947v-123.994c0-12.45 8.529-23.279 20.632-26.197 49.158-11.85 83.695-22.808 103.741-35.052 10.618-6.486 24.297-4.858 33.097 3.938l87.689 87.651-38.105 0.004 107.998-107.998 0.004 38.113-87.651-87.613c-8.799-8.795-10.433-22.471-3.955-33.092 12.26-20.098 23.281-54.809 35.098-103.831 2.918-12.103 13.747-20.632 26.197-20.632h123.956l-26.947 26.947v-114.526l26.947 26.947h-123.917zM656.842 448c0-80.007-64.845-144.842-144.842-144.842s-144.842 64.835-144.842 144.842c0 79.983 64.859 144.842 144.842 144.842s144.842-64.859 144.842-144.842v0zM710.737 448c0 109.749-88.988 198.737-198.737 198.737s-198.737-88.988-198.737-198.737c0-109.775 88.976-198.737 198.737-198.737s198.737 88.962 198.737 198.737v0z" />
<glyph unicode="&#xe908;" glyph-name="custom_bitlink_icon" horiz-adv-x="1321" d="M546.44 218.377l-177.135-171.421c-75.973-73.522-173.65-78.824-232.914-21.433l-44.289 42.861c-55.813 54.031-55.813 147.815 0 201.828l243.56 235.703c88.788 85.924 183.386 70.667 252.822-18.928 7.974-10.289 22.78-12.166 33.069-4.192s12.166 22.78 4.192 33.069c-85.557 110.396-212.377 130.851-322.865 23.927l-243.56-235.703c-74.956-72.538-74.956-197.016-0.003-269.576l44.287-42.858c78.396-75.919 204.993-69.048 298.485 21.428l177.135 171.421c9.354 9.053 9.599 23.975 0.546 33.329s-23.975 9.599-33.329 0.546v0 0zM879.141 894.905c-55.563 25.494-119.361 22.473-157.782-14.722l-199.276-192.848c-9.354-9.053-24.276-8.808-33.329 0.546s-8.808 24.276 0.546 33.329l199.274 192.845c58.469 56.602 152.65 57.173 228.002 14.624-13.112-10.532-25.616-21.858-37.434-33.775v0 0 0 0zM710.718 378.37c-52.457-50.765-146.719-38.602-185.617 17.861-7.385 10.72-22.062 13.424-32.782 6.039s-13.424-22.062-6.039-32.782c55.070-79.941 183.339-96.492 257.22-24.994l100.339 97.102c-10.008 12.616-19.285 25.59-27.761 38.735l-105.36-101.962zM1090.783 645.692c-13.738 0-24.917 11.175-24.917 24.917s11.178 24.917 24.917 24.917c13.75 0 24.917-11.167 24.917-24.917s-11.167-24.917-24.917-24.917v0 0zM1090.783 723.692c-29.292 0-53.084-23.783-53.084-53.084s23.791-53.084 53.084-53.084c29.306 0 53.084 23.777 53.084 53.084s-23.777 53.084-53.084 53.084v0 0zM984.17 648.348c16.996 0 30.774 9.967 30.774 22.261s-13.778 22.261-30.774 22.261h-85.221c-16.996 0-30.774-9.967-30.774-22.261s13.778-22.261 30.774-22.261h85.221zM1008.418 556.763c8.696 8.69 8.701 22.785 0.011 31.482s-22.785 8.701-31.482 0.011l-43.583-43.553c-8.696-8.69-8.701-22.785-0.011-31.482s22.785-8.701 31.482-0.011l43.583 43.553zM1113.043 564.020c0 17-9.967 30.781-22.261 30.781s-22.261-13.781-22.261-30.781v-85.239c0-17 9.967-30.781 22.261-30.781s22.261 13.781 22.261 30.781v85.239zM1204.592 588.281c-8.693 8.693-22.788 8.693-31.482 0s-8.693-22.788 0-31.482l43.583-43.583c8.693-8.693 22.788-8.693 31.482 0s8.693 22.788 0 31.482l-43.583 43.583zM1166.621 670.609c0-12.294 13.778-22.261 30.774-22.261h85.221c16.996 0 30.774 9.967 30.774 22.261s-13.778 22.261-30.774 22.261h-85.221c-16.996 0-30.774-9.967-30.774-22.261zM1173.111 784.418c-8.693-8.693-8.693-22.788 0-31.482s22.788-8.693 31.482 0l43.583 43.583c8.693 8.693 8.693 22.788 0 31.482s-22.788 8.693-31.482 0l-43.583-43.583zM1090.783 746.417c12.294 0 22.261 13.781 22.261 30.781v85.239c0 17-9.967 30.781-22.261 30.781s-22.261-13.781-22.261-30.781v-85.239c0-17 9.967-30.781 22.261-30.781zM976.942 752.937c8.693-8.693 22.788-8.693 31.482 0s8.693 22.788 0 31.482l-43.583 43.583c-8.693 8.693-22.788 8.693-31.482 0s-8.693-22.788 0-31.482l43.583-43.583z" />
</font>
</defs>
</svg>
