<svg width="173" height="155" viewBox="0 0 173 155" xmlns="http://www.w3.org/2000/svg"><title>campaign_upsell</title><g fill="none" fill-rule="evenodd"><path fill="#FFF" d="M-97-145h320v968H-97z"/><path d="M71.805 46.686c-17.917 3.66-31.398 19.53-31.398 38.555 0 21.733 17.593 39.35 39.294 39.35 21.703 0 39.295-17.617 39.295-39.35 0-.784-.022-1.564-.068-2.337l-50.39 21.706 3.268-57.924z" stroke="#DFF3EE" stroke-width="15.9"/><g fill="#DFF3EE"><path d="M65.033 17.233C34.72 24.84 12.277 52.256 12.277 84.91c0 38.535 31.258 69.775 69.817 69.775 38.56 0 69.817-31.24 69.817-69.775 0-7.45-1.167-14.626-3.33-21.357l-28.352 9.563c1.212 3.817 1.866 7.882 1.866 12.1 0 22.078-17.91 39.975-40 39.975s-40-17.896-40-39.974c0-18.654 12.785-34.323 30.075-38.735l-7.137-29.247z"/><path d="M62.645 17.87c-30.028 8.662-51.502 36.843-50.363 69.477 1.345 38.512 33.675 68.64 72.21 67.296 38.536-1.346 68.685-33.657 67.34-72.17-.26-7.444-1.678-14.575-4.074-21.227l-28 10.547c1.343 3.773 2.138 7.812 2.285 12.028.77 22.065-16.502 40.576-38.58 41.347-22.078.77-40.6-16.49-41.37-38.554-.65-18.643 11.58-34.75 28.704-39.76L62.645 17.87z"/><path d="M117.562 24.67C90.472 9.086 55.284 13.216 32.6 36.705c-26.77 27.72-25.984 71.906 1.753 98.69 27.737 26.786 71.923 26.03 98.692-1.692 5.175-5.358 9.32-11.332 12.44-17.676l-27.038-12.816c-1.78 3.588-4.134 6.967-7.064 10-15.336 15.882-40.65 16.316-56.542.97-15.89-15.346-16.34-40.66-1.003-56.54 12.958-13.42 33.04-15.81 48.54-6.974l15.185-25.996z" opacity=".107"/></g><path d="M119.89 71.64c1.207 3.804 1.86 7.857 1.86 12.062 0 22.01-17.854 39.853-39.877 39.853-22.022 0-39.875-17.843-39.875-39.853 0-21.808 17.525-39.525 39.268-39.85v40.815L119.89 71.64z" fill="#B5E7DB"/><path d="M81.293 15.116c-6.71.005-13.354 1-19.73 2.907l8.232 28.983c3.703-1.12 7.567-1.705 11.47-1.703l.028-30.187z" fill="#CFEFFF"/><path d="M61.455 17.94c-19.003 6.187-35.228 20.393-43.287 40.34-.076.19-.152.38-.226.57l28.186 11.387.225-.57c4.6-11.383 13.84-19.503 24.674-23.07L61.455 17.94z" opacity=".778" fill="#B5E2FA"/><path d="M81.282 43.957c-15.267.583-29.595 10.083-35.77 25.368-.214.53-.416 1.062-.607 1.595l35.95 15.262.427-42.225z" opacity=".74" fill="#80CDF4"/><path d="M119.577 72.103C114.403 56.057 99.14 44.43 81.114 44.43c-.206 0-.41 0-.615.004v40.644l39.077-12.975z" fill="#F5D18F"/><g><path d="M134.73 39.962c-12.856-15.3-32.106-25.023-53.62-25.023-.203 0-.407 0-.61.002v30.4c.202-.003.406-.004.61-.004 12.28 0 23.27 5.527 30.635 14.235l22.985-19.61z" opacity=".778" fill="#FCD99B"/><path d="M145.43 54.79c1.088 2.358 2.043 4.787 2.857 7.277l-28.653 9.46c-.47-1.447-1.022-2.86-1.652-4.23l27.45-12.506z" fill="#FFF5E1"/><path d="M145.097 55.794c-2.693-5.862-6.195-11.29-10.366-16.147l-23.128 19.308c2.435 2.817 4.477 5.973 6.04 9.385l27.455-12.546zM134.73 39.647C121.816 24.605 102.486 15.04 80.878 15.01l-.304 29.93h.202c12.356 0 23.416 5.44 30.827 14.015l23.13-19.308z" fill="#FFF4E1"/></g><g><path d="M129.226 69.065c-6.428-19.924-25.39-34.36-47.78-34.36-.256 0-.51 0-.764.005v50.463l48.544-16.108z" fill="#F5D18F"/><path d="M159.612 48.722c1.35 2.928 2.536 5.943 3.548 9.034l-35.594 11.748c-.584-1.798-1.27-3.55-2.052-5.253l34.098-15.528z" fill="#F4DFB9"/><path d="M160.928 51.698c-3.346-7.28-7.696-14.018-12.877-20.048l-28.73 23.973C110.112 44.977 96.372 38.22 81.024 38.22c-.114 0-.23 0-.343.002l.31-37.162h.033c26.893 0 50.956 11.884 67.026 30.59l-28.73 23.973c3.024 3.498 5.56 7.416 7.503 11.652l34.105-15.577z" fill="#FFF4E1"/><path d="M148.05 31.465c-15.97-19-39.883-31.07-66.608-31.07-.254 0-.507.002-.76.004v37.744c.253-.003.506-.005.76-.005 15.252 0 28.905 6.86 38.054 17.673l28.553-24.348z" opacity=".778" fill="#FCE0AE"/></g><g><path d="M100.77 46.28v-1.905h-5.035V42.06h4.93v-1.905h-4.93v-2.133h5.036v-1.905H93.57V46.28h7.203zm12.744 0v-5.318c0-1.508-.81-2.224-2.167-2.224-1.13 0-2.106.67-2.534 1.325-.26-.823-.96-1.325-2.045-1.325-1.13 0-2.09.7-2.41 1.127v-.945h-1.94v7.36h1.94v-4.967c.29-.397.854-.854 1.525-.854.794 0 1.1.487 1.1 1.173v4.647h1.952v-4.967c.275-.397.84-.854 1.527-.854.793 0 1.098.487 1.098 1.173v4.647h1.954zm8.302 0v-4.754c0-2.118-1.542-2.788-3.236-2.788-1.16 0-2.32.35-3.22 1.158l.763 1.356c.61-.564 1.343-.87 2.122-.87.976 0 1.617.49 1.617 1.235v.93c-.488-.58-1.343-.9-2.335-.9-1.175 0-2.548.64-2.548 2.378 0 1.645 1.372 2.437 2.547 2.437.962 0 1.832-.35 2.335-.96v.778h1.954zm-3.51-1.128c-.763 0-1.39-.396-1.39-1.097 0-.7.627-1.112 1.39-1.112.625 0 1.236.228 1.556.655v.914c-.32.427-.93.64-1.556.64zm6.38-7.024c.64 0 1.158-.518 1.158-1.158 0-.64-.518-1.143-1.16-1.143-.625 0-1.144.503-1.144 1.143s.52 1.158 1.145 1.158zm.975 8.152v-7.36h-1.937v7.36h1.938zm3.862 0V36.117h-1.938V46.28h1.938zm-28.278 14.33c2.243 0 3.617-1.234 3.617-2.925 0-1.645-1.434-2.423-2.35-2.514.947-.15 2.183-.883 2.183-2.36 0-1.707-1.48-2.697-3.434-2.697-1.588 0-2.763.67-3.496 1.57l.702.79c.748-.806 1.572-1.233 2.686-1.233 1.237 0 2.274.61 2.274 1.737 0 1.173-1.083 1.676-2.365 1.676-.41 0-.884 0-1.052-.015v1.158c.152-.015.626-.015 1.053-.015 1.496 0 2.534.534 2.534 1.798 0 1.158-.9 1.905-2.38 1.905-1.206 0-2.244-.55-2.84-1.34l-.747.79c.626.916 1.892 1.677 3.617 1.677zm9.034 0c2.045 0 3.632-1.295 3.632-3.352 0-2.102-1.54-3.245-3.25-3.245-1.023 0-1.877.427-2.38.914v-3.535h4.96v-1.127h-6.227v5.47l.93.32c.687-.655 1.466-.945 2.35-.945 1.374 0 2.336.853 2.336 2.194 0 1.234-.963 2.18-2.352 2.18-1.236 0-2.136-.49-2.808-1.357l-.778.853c.763 1.006 1.877 1.63 3.586 1.63zm7.34-5.485c1.466 0 2.458-1.08 2.458-2.483 0-1.448-.992-2.53-2.457-2.53-1.45 0-2.458 1.082-2.458 2.53 0 1.402 1.007 2.483 2.457 2.483zm-.136 5.303l6.516-10.163h-.855l-6.5 10.163h.84zm5.448.182c1.45 0 2.44-1.08 2.44-2.498 0-1.417-.99-2.514-2.44-2.514s-2.457 1.097-2.457 2.514c0 1.417 1.007 2.498 2.457 2.498zm-5.31-6.262c-.902 0-1.542-.746-1.542-1.706 0-1.006.64-1.752 1.54-1.752.917 0 1.542.746 1.542 1.752 0 .96-.625 1.706-1.54 1.706zm5.31 5.485c-.93 0-1.557-.746-1.557-1.72 0-.992.626-1.738 1.557-1.738.915 0 1.54.746 1.54 1.737 0 .975-.625 1.72-1.54 1.72z" fill="#464C50"/><path d="M46.835 55.28c2.55 0 3.486-1.416 3.486-2.774 0-3.523-5.596-2.306-5.596-4.43 0-.89.82-1.498 1.94-1.498 1.035 0 2.027.34 2.736 1.13l.708-.862c-.793-.834-1.913-1.33-3.344-1.33-1.87 0-3.26 1.076-3.26 2.632 0 3.367 5.598 2.01 5.598 4.443 0 .736-.538 1.642-2.225 1.642-1.332 0-2.352-.65-2.96-1.36l-.71.907c.78.876 1.998 1.5 3.628 1.5zm14.497-.17V45.67h-1.687l-2.933 7.272-2.948-7.272h-1.686v9.437h1.176V47.17l3.217 7.937h.483l3.203-7.938v7.937h1.176zm5.27.17c2.552 0 3.487-1.416 3.487-2.774 0-3.523-5.598-2.306-5.598-4.43 0-.89.822-1.498 1.94-1.498 1.036 0 2.028.34 2.736 1.13l.71-.862c-.795-.834-1.914-1.33-3.346-1.33-1.87 0-3.26 1.076-3.26 2.632 0 3.367 5.6 2.01 5.6 4.443 0 .736-.54 1.642-2.226 1.642-1.332 0-2.353-.65-2.962-1.36l-.708.907c.78.876 1.998 1.5 3.627 1.5zM66.65 108.163v-8.39h3.003v-1.047h-7.17v1.047h2.99v8.39h1.176zm10.726 0l2.182-6.834h-1.12l-1.67 5.446-1.787-5.447h-.92l-1.8 5.446-1.672-5.447h-1.105l2.182 6.833h1.063l1.786-5.49 1.785 5.49h1.076zm3.94-7.81c.396 0 .708-.31.708-.707 0-.397-.312-.722-.708-.722-.397 0-.723.325-.723.722 0 .396.326.707.723.707zm.524 7.81v-6.834h-1.063v6.833h1.063zm3.87.17c.608 0 .99-.185 1.26-.44l-.312-.806c-.142.156-.41.298-.723.298-.453 0-.68-.368-.68-.878v-4.244h1.39v-.934h-1.39V99.46h-1.077v1.867h-1.133v.933h1.133v4.47c0 1.02.51 1.6 1.53 1.6zm4.165 0c.61 0 .992-.185 1.26-.44l-.31-.806c-.142.156-.412.298-.723.298-.454 0-.68-.368-.68-.878v-4.244h1.388v-.934h-1.39V99.46h-1.076v1.867H87.21v.933h1.134v4.47c0 1.02.51 1.6 1.53 1.6zm5.526 0c1.107 0 2.028-.383 2.722-1.062l-.51-.692c-.553.566-1.332.877-2.126.877-1.473 0-2.366-1.075-2.45-2.362h5.526v-.27c0-2.05-1.22-3.664-3.288-3.664-1.956 0-3.373 1.598-3.373 3.58 0 2.135 1.46 3.592 3.5 3.592zm2.113-4.033H93.02c.057-1.033.78-2.263 2.24-2.263 1.56 0 2.24 1.26 2.253 2.263zm3.826 3.863v-4.84c.31-.55 1.204-1.088 1.87-1.088.155 0 .283.014.41.028v-1.09c-.935 0-1.728.538-2.28 1.246v-1.09h-1.064v6.833h1.063z" fill="#9B9B9B"/></g><path stroke="#D8D8D8" d="M-97-145h320v834H-97z"/></g></svg>