<svg width="173" height="155" viewBox="0 0 173 155" xmlns="http://www.w3.org/2000/svg" xmlns:xlink="http://www.w3.org/1999/xlink"><title>deeplink_upsell</title><defs><path id="a" d="M0 0h173v155H0z"/></defs><g fill="none" fill-rule="evenodd"><mask id="b" fill="#fff"><use xlink:href="#a"/></mask><use fill="#FFF" xlink:href="#a"/><g transform="translate(.143 -.068)" mask="url(#b)"><rect stroke="#61B3DE" fill="#EFF7FC" x="2.399" y="3.388" width="169.745" height="355.733" rx="30"/><path stroke="#F1F1F1" stroke-width="1.2" fill="#FFF" d="M12.596 47.033h148.75v269.042H12.597z"/><path d="M86.972 24.814c1.932 0 3.5-1.562 3.5-3.49 0-1.927-1.568-3.49-3.5-3.49s-3.5 1.563-3.5 3.49c0 1.928 1.568 3.49 3.5 3.49zm0-1c-1.38 0-2.5-1.115-2.5-2.49 0-1.374 1.12-2.49 2.5-2.49s2.5 1.116 2.5 2.49c0 1.375-1.12 2.49-2.5 2.49zM73.576 34.777c0 .932.757 1.69 1.686 1.69h24.02c.927 0 1.685-.758 1.685-1.69 0-.933-.757-1.69-1.686-1.69H75.263c-.928 0-1.686.757-1.686 1.69zm-1 0c0-1.486 1.207-2.69 2.686-2.69h24.02c1.482 0 2.685 1.207 2.685 2.69 0 1.485-1.207 2.69-2.686 2.69H75.263c-1.483 0-2.686-1.208-2.686-2.69z" fill="#61B3DE"/><rect fill="#61B3DE" x="116.362" y=".997" width="24.362" height="3.1" rx="2.4"/><path d="M1.806 69.752c-.665 0-1.204-.532-1.204-1.19V57.79c0-.658.535-1.19 1.204-1.19H3.01V69.75H1.806zM1.806 97.852c-.665 0-1.204-.534-1.204-1.193v-8.377c0-.66.535-1.193 1.204-1.193H3.01v10.762H1.806zM1.806 114.592c-.665 0-1.204-.533-1.204-1.192v-8.377c0-.658.535-1.192 1.204-1.192H3.01v10.762H1.806z" fill="#61B3DE"/><g><path d="M107.445 81.51l-17.898.014c-3.87.007-6.837 1.07-9.347 3.13-1.918 1.572-3.152 3.16-5.705 6.993-3.137 4.71-4.73 6.63-7.46 8.335-2.295 1.433-4.972 2.14-8.362 2.148-.277 0-.5-.223-.5-.5-.002-.276.222-.5.498-.5 3.21-.007 5.705-.666 7.834-1.996 2.57-1.605 4.1-3.45 7.16-8.042 2.607-3.914 3.88-5.555 5.902-7.212 2.69-2.206 5.878-3.348 9.98-3.356l17.896-.013-6.368-9.513c-.154-.23-.092-.54.137-.693.23-.154.54-.092.695.137l6.876 10.273c.062.083.1.186.1.297 0 .113-.04.218-.102.302l-6.833 10.293c-.152.23-.463.292-.693.14-.23-.153-.293-.463-.14-.693l6.333-9.54z" fill="#9B9B9B"/><path d="M107.525 122.73l-17.978.012c-4.102.007-7.29-1.125-9.977-3.324-2.02-1.654-3.292-3.292-5.896-7.204-2.55-3.828-3.78-5.415-5.697-6.983-2.508-2.052-5.472-3.105-9.343-3.097H46.727c-.277 0-.5-.224-.5-.5 0-.277.223-.5.5-.5h11.906c4.1-.008 7.29 1.124 9.977 3.324 2.02 1.653 3.292 3.29 5.896 7.203 2.55 3.83 3.78 5.415 5.697 6.984 2.508 2.053 5.472 3.105 9.343 3.098l17.976-.013-6.37-9.515c-.152-.23-.09-.54.14-.694.228-.152.54-.09.692.14l6.878 10.273c.06.083.096.184.096.294 0 .113-.037.217-.1.3l-6.833 10.295c-.153.23-.463.293-.693.14-.23-.152-.293-.463-.14-.693l6.333-9.54z" fill="#EE6123"/><path d="M36.305 90.675c5.967 0 10.805 4.838 10.805 10.805s-4.838 10.804-10.805 10.804c-5.968 0-10.805-4.837-10.805-10.804 0-5.967 4.837-10.805 10.805-10.805zm0 1c-5.415 0-9.805 4.39-9.805 9.805s4.39 9.804 9.805 9.804 9.805-4.39 9.805-9.804c0-5.415-4.39-9.805-9.805-9.805z" fill="#EE6123"/></g><path d="M36.56 103.886l-1.728 1.685c-.863.844-1.952.834-2.59.212l-.43-.42c-.638-.624-.638-1.696 0-2.318l2.373-2.317c1.08-1.053 2.158-.632 2.805.21" stroke="#EE6123" stroke-width=".6" stroke-linecap="round"/><path d="M35.696 99.253l1.942-1.896c.637-.622 1.736-.412 2.373.21l.433.422c.638.62.638 1.483 0 2.105l-2.59 2.527c-.647.632-1.726.422-2.157-.21" stroke="#EE6123" stroke-width=".6" stroke-linecap="round"/><path d="M134 134.54c-6.606.015-11.998-5.356-12-11.956-.002-6.6 5.39-11.978 12.02-11.967 6.612.01 11.99 5.38 11.98 11.98-.01 6.593-5.398 11.957-12 11.942zm3.493-9.872c-.027-.054-.04-.084-.056-.112-.54-.897-1.08-1.794-1.618-2.693-.058-.096-.125-.125-.232-.124-.96.01-1.918.016-2.877.018-.115 0-.167.058-.22.144-.532.875-1.066 1.748-1.6 2.622-.024.04-.042.087-.07.144h6.673zm-8.443 2.07l3.67-6.044c-.544-.35-1.074-.694-1.618-1.046-1.2 2.023-2.387 4.03-3.58 6.045l1.528 1.044zm4.158-12.243c-.057.082-.125.137-.132.2-.015.12-.018.252.014.368.1.356.192.72.335 1.06.75 1.787 1.598 3.53 2.543 5.224.382.686.8 1.352 1.207 2.024.105.176.112.173.294.068.268-.155.535-.312.803-.468.167-.097.17-.098.08-.268-.816-1.52-1.613-3.048-2.454-4.552-.507-.905-1.07-1.78-1.634-2.65-.18-.28-.433-.518-.67-.76-.095-.096-.235-.15-.388-.245zm5.144 7.28c.018.053.027.09.042.122.43.882.86 1.763 1.287 2.646.046.093.1.134.208.133.534-.006 1.07-.01 1.604-.002.143.002.175-.05.174-.183-.006-.846-.004-1.693-.005-2.54 0-.187 0-.188-.192-.188l-2.95.003c-.05 0-.1.006-.166.01zm-9.016.007c-.058-.008-.085-.014-.113-.014-.9-.002-1.803-.003-2.705-.008-.125 0-.15.053-.15.164.01.646.015 1.293.02 1.94.002.228.005.456 0 .684 0 .11.036.153.15.15.3-.005.6-.005.9 0 .11.003.174-.032.23-.127.4-.675.805-1.347 1.21-2.02l.458-.768zm11.173 7.296c.4-.01.7-.186.893-.54.102-.188.106-.38.003-.572-.084-.154-.17-.308-.258-.46-.42-.737-.88-1.448-1.417-2.107-.08-.1-.143-.123-.258-.048-.216.14-.44.266-.667.39-.1.053-.122.112-.084.216.193.522.355 1.056.576 1.566.19.443.438.863.678 1.283.11.194.305.28.535.27zm-6.78-10.098c-.035-.03-.066-.063-.103-.087-.437-.29-.876-.574-1.31-.866-.103-.07-.16-.064-.228.045-.252.41-.51.816-.77 1.22-.066.102-.04.152.053.214.443.288.885.58 1.322.876.1.066.15.057.212-.045.252-.42.51-.836.767-1.254.017-.028.03-.058.055-.103zm3.703 4.815l.98 1.637c.037.065.08.067.14.03.27-.17.546-.333.814-.505.03-.02.058-.102.043-.133-.26-.534-.53-1.065-.794-1.598-.044-.09-.094-.07-.16-.033-.283.167-.568.33-.852.497-.053.03-.104.064-.17.105zm-8.597 3.323l-1.506-1.038-.597 2.725.037.018 2.066-1.705zm4.963-8.388c.3-.385.276-.812-.057-1.13-.055-.052-.11-.105-.176-.145-.56-.344-.92-.25-1.216.178-.055.08-.048.13.038.183.318.2.633.408.95.613l.46.3z" fill="#61B3DE"/><rect fill="#61B3DE" x="122" y="71.742" width="24" height="23.151" rx="6"/><path d="M127.306 85.916h.643c.117 0 .183-.074.213-.148l.362-.797h2.207l.362.798c.052.103.104.148.214.148h.643c.112 0 .17-.096.126-.192l-2.274-4.97c-.022-.044-.052-.08-.125-.08h-.074c-.067 0-.104.036-.126.08l-2.296 4.97c-.044.096.015.192.126.192zm1.58-1.765l.724-1.624h.022l.74 1.625h-1.486zm3.862 1.626c0 .073.06.14.14.14h.68c.074 0 .14-.067.14-.14V84.04h.923c.902 0 1.648-.746 1.648-1.66 0-.895-.746-1.633-1.654-1.633h-1.735c-.083 0-.142.066-.142.14v4.89zm.96-2.637v-1.485h.857c.413 0 .76.31.76.716 0 .437-.347.77-.76.77h-.857zm3.412 2.636c0 .073.06.14.14.14h.68c.073 0 .14-.067.14-.14V84.04h.923c.9 0 1.647-.746 1.647-1.66 0-.895-.746-1.633-1.655-1.633h-1.735c-.08 0-.14.066-.14.14v4.89zm.96-2.637v-1.485h.856c.414 0 .76.31.76.716 0 .437-.346.77-.76.77h-.856z" fill="#FFF"/></g></g></svg>